<?xml version="1.0" encoding="UTF-8"?>
<svg version="1.1" xmlns="http://www.w3.org/2000/svg" width="612" height="367">
<path d="M0 0 C201.96 0 403.92 0 612 0 C612 121.11 612 242.22 612 367 C410.04 367 208.08 367 0 367 C0 245.89 0 124.78 0 0 Z " fill="#FAF6FB" transform="translate(0,0)"/>
<path d="M0 0 C0.81726563 0.226875 1.63453125 0.45375 2.4765625 0.6875 C9.96305811 2.93064475 16.97532318 6.62186161 24 10 C24 10.66 24 11.32 24 12 C24.680625 12.20625 25.36125 12.4125 26.0625 12.625 C30.97526406 14.92459169 34.73831245 18.52803119 38.25 22.625 C45.31833363 28.72946995 53.97089746 29.43578121 62.9375 29.3125 C73.81545639 29.42899406 83.6125599 31.50516237 94.03100586 34.56176758 C103.18078458 37.1578264 113.86417981 39.51075601 122.75 35 C124.35875 34.01 124.35875 34.01 126 33 C126.66 33 127.32 33 128 33 C128.33 32.01 128.66 31.02 129 30 C129.99 30 130.98 30 132 30 C132 29.34 132 28.68 132 28 C132.83402344 27.82984375 133.66804688 27.6596875 134.52734375 27.484375 C141.44298953 25.99509504 147.6884687 24.20631567 154 21 C164.39300782 15.80349609 185.42000049 19.28578933 196.203125 22.7890625 C200.00805863 24.43644997 202.80962039 26.35266373 206 29 C206.928125 29.45375 207.85625 29.9075 208.8125 30.375 C215.74153743 33.90745045 222.2791025 38.7307523 228 44 C228 44.66 228 45.32 228 46 C228.721875 46.144375 229.44375 46.28875 230.1875 46.4375 C234.49350898 48.82972721 235.85018282 52.70036565 238 57 C239.62960304 59.80291723 241.3008141 62.42113974 243.1875 65.0625 C245 68 245 68 245 72 C245.66 72 246.32 72 247 72 C247.26554687 72.84304687 247.53109375 73.68609375 247.8046875 74.5546875 C248.33449219 76.19824219 248.33449219 76.19824219 248.875 77.875 C249.22304688 78.96554688 249.57109375 80.05609375 249.9296875 81.1796875 C250.81175231 84.08522723 250.81175231 84.08522723 253 86 C253.4140625 88.6015625 253.4140625 88.6015625 253.625 91.625 C253.69976563 92.62789063 253.77453125 93.63078125 253.8515625 94.6640625 C253.90054687 95.43492187 253.94953125 96.20578125 254 97 C254.99 97.33 255.98 97.66 257 98 C258 99.56640625 258 99.56640625 259 101.5625 C262.64743687 107.76090499 269.19111741 112.73037247 276 115 C276.45375 115.763125 276.9075 116.52625 277.375 117.3125 C278.87630376 120.15273412 278.87630376 120.15273412 281.625 122.0625 C284.23632659 124.19279274 284.39091187 124.85304467 285 128 C286.41666667 129.58333333 286.41666667 129.58333333 288 131 C290 134 290 134 290 137 C290.66 137 291.32 137 292 137 C295.70088212 144.62553851 296.73559871 151.56559869 297 160 C297.66 160 298.32 160 299 160 C299.05845252 164.49994472 299.09374855 168.99979063 299.125 173.5 C299.14175781 174.7684375 299.15851563 176.036875 299.17578125 177.34375 C299.21032335 183.97583392 298.90412746 189.65290845 297 196 C296.74511972 197.82744355 296.52822991 199.66124105 296.375 201.5 C296.30023437 202.3559375 296.22546875 203.211875 296.1484375 204.09375 C296.09945313 204.7228125 296.05046875 205.351875 296 206 C295.34 206 294.68 206 294 206 C293.71125 206.9075 293.4225 207.815 293.125 208.75 C292.23468224 211.32202908 291.28505587 213.61346766 290 216 C289.34 216 288.68 216 288 216 C288 217.32 288 218.64 288 220 C287.34 220 286.68 220 286 220 C285.72414063 220.72316406 285.44828125 221.44632813 285.1640625 222.19140625 C281.71802763 230.50583266 277.53136445 236.10613768 270 241 C268.95199219 241.82177734 268.95199219 241.82177734 267.8828125 242.66015625 C266 244 266 244 264 244 C264 244.66 264 245.32 264 246 C263.34 246 262.68 246 262 246 C261.67 246.99 261.34 247.98 261 249 C259.07421875 250.16796875 259.07421875 250.16796875 256.6875 251.1875 C255.90761719 251.53167969 255.12773438 251.87585938 254.32421875 252.23046875 C252 253 252 253 248 253 C248 253.66 248 254.32 248 255 C245.41747107 255.50449402 242.83411297 256.00374301 240.25 256.5 C239.52039063 256.64308594 238.79078125 256.78617187 238.0390625 256.93359375 C234.60656468 257.58888879 231.50830509 258 228 258 C228 258.66 228 259.32 228 260 C220.01532437 261.00424469 212.12051434 261.14833419 204.08006287 261.14717102 C202.68936454 261.15047697 201.29866716 261.15420405 199.90797096 261.1583125 C196.10965145 261.16825698 192.31134773 261.17203698 188.51301706 261.17470181 C184.40716478 261.17862728 180.30132474 261.18820366 176.19548035 261.19691467 C166.29366372 261.21661227 156.39184618 261.22673507 146.49001488 261.23564246 C141.81856397 261.24003488 137.14711417 261.24539906 132.47566414 261.25063133 C116.93388193 261.26763409 101.3921004 261.28212756 85.85031033 261.28938007 C81.8236281 261.29128971 77.79694588 261.29321009 73.77026367 261.29516602 C72.26919342 261.29589163 72.26919342 261.29589163 70.73779852 261.2966319 C54.53183516 261.30492991 38.32594566 261.33026726 22.12001454 261.36274669 C5.45532153 261.39587156 -11.209334 261.41383358 -27.87406009 261.41702431 C-37.22009333 261.41918398 -46.56601872 261.42785325 -55.91201973 261.45348549 C-63.87171503 261.47526649 -71.83127626 261.48320655 -79.79099799 261.47351871 C-83.84583696 261.46899584 -87.90039971 261.47074178 -91.9552002 261.49028015 C-123.14607926 261.63227171 -123.14607926 261.63227171 -137 257 C-138.13076745 256.6267777 -139.2615349 256.25355539 -140.42656803 255.86902332 C-141.27580058 255.58224563 -142.12503313 255.29546793 -143 255 C-143 254.34 -143 253.68 -143 253 C-143.81984375 252.9278125 -144.6396875 252.855625 -145.484375 252.78125 C-149.96874347 251.78472367 -153.3392565 249.85177814 -157.25 247.5 C-157.99926758 247.05293701 -158.74853516 246.60587402 -159.52050781 246.14526367 C-168.38341381 240.72128005 -175.13327581 234.54865524 -181 226 C-181.79535156 225.42636719 -182.59070313 224.85273438 -183.41015625 224.26171875 C-186.60251693 221.47382006 -188.03703377 218.46026079 -189.625 214.625 C-189.92349854 213.91311523 -190.22199707 213.20123047 -190.52954102 212.46777344 C-197.92114406 194.21118423 -198.82995516 173.60393826 -191.125 155.3125 C-190.43246478 153.86732273 -189.72393487 152.4297065 -189 151 C-188.44505859 149.85724609 -188.44505859 149.85724609 -187.87890625 148.69140625 C-185.3597298 143.79346647 -182.50844171 140.13928444 -178.453125 136.41015625 C-176.88347749 135.04231106 -176.88347749 135.04231106 -176 133 C-175.01 132.67 -174.02 132.34 -173 132 C-171.8565696 130.82293929 -170.71510082 129.64387905 -169.5859375 128.453125 C-167.69297776 126.71868898 -165.67024595 125.43242269 -163.5 124.0625 C-154.85514572 118.45269439 -152.29791985 111.72920362 -149.9375 101.9375 C-149.76412109 101.23044922 -149.59074219 100.52339844 -149.41210938 99.79492188 C-148.9388731 97.86390029 -148.46928366 95.93198597 -148 94 C-147.66814017 92.66629916 -147.33577626 91.33272022 -147 90 C-146.34 90 -145.68 90 -145 90 C-144.95875 89.154375 -144.9175 88.30875 -144.875 87.4375 C-143.73613572 82.96339031 -141.42219934 80.06817872 -138 77 C-137.34 77 -136.68 77 -136 77 C-135.62875 76.071875 -135.62875 76.071875 -135.25 75.125 C-133.79371361 72.64931313 -132.62187494 72.04874998 -130 71 C-130 70.34 -130 69.68 -130 69 C-129.27554688 68.67386719 -128.55109375 68.34773438 -127.8046875 68.01171875 C-125.80718143 67.10884601 -123.81249102 66.19972414 -121.8203125 65.28515625 C-119.80998897 64.3690947 -117.78460186 63.48579309 -115.75 62.625 C-109.03261393 58.6556355 -105.40785877 53.46813818 -102.18359375 46.48046875 C-101.07148664 44.14981524 -99.83782231 42.0414561 -98.4375 39.875 C-95.97126735 36.05077848 -93.97577153 32.09789651 -92 28 C-91.34 28 -90.68 28 -90 28 C-89.74347656 27.40832031 -89.48695313 26.81664063 -89.22265625 26.20703125 C-87.04959011 22.28440387 -83.4298678 19.81001217 -80 17 C-79.28199219 16.40703125 -78.56398438 15.8140625 -77.82421875 15.203125 C-66.3388443 5.98218494 -54.92226729 -0.43261341 -40 -1 C-40 -1.66 -40 -2.32 -40 -3 C-25.92482537 -5.34586244 -13.50841483 -4.05550644 0 0 Z " fill="#F5B9CB" transform="translate(260,44)"/>
<path d="M0 0 C1.28039373 -0.00576172 1.28039373 -0.00576172 2.58665401 -0.01163983 C3.51961919 -0.01077335 4.45258437 -0.00990687 5.41382122 -0.00901413 C6.40868674 -0.01198525 7.40355225 -0.01495637 8.4285652 -0.01801753 C11.7717781 -0.02670905 15.11495521 -0.02821316 18.45817852 -0.02970505 C20.851322 -0.03433286 23.24446474 -0.03935747 25.63760662 -0.04475021 C32.14589536 -0.0578789 38.65417725 -0.06435668 45.16247678 -0.06876087 C49.22700999 -0.07152468 53.29154082 -0.07576227 57.35607243 -0.08026505 C68.61188419 -0.09245609 79.86769405 -0.10275598 91.12351227 -0.10614014 C92.20380586 -0.10646949 92.20380586 -0.10646949 93.30592356 -0.10680549 C94.3887836 -0.10713291 94.3887836 -0.10713291 95.4935196 -0.10746694 C96.95634862 -0.1079104 98.41917763 -0.10835696 99.88200665 -0.10880661 C100.97042438 -0.10913875 100.97042438 -0.10913875 102.08083036 -0.10947761 C113.83848736 -0.11342569 125.59608239 -0.13088072 137.35371546 -0.15416613 C149.42806086 -0.17788559 161.50237518 -0.19034224 173.57674426 -0.19150805 C180.35488682 -0.19242444 187.13294862 -0.1981676 193.91106892 -0.21632767 C200.2861562 -0.23278148 206.66109007 -0.23497684 213.03619099 -0.22618866 C215.37630403 -0.22541687 217.71642523 -0.22977957 220.0565176 -0.23964691 C223.25075351 -0.25232625 226.44444279 -0.24651109 229.63867474 -0.23606491 C230.56494775 -0.24412132 231.49122077 -0.25217772 232.44556266 -0.26047826 C237.93969385 -0.21844823 241.91472086 0.36252191 246.71672344 3.13142776 C249.26435701 6.31970433 248.96349483 9.67836615 248.95723248 13.64870071 C248.95980053 14.6253997 248.95980053 14.6253997 248.96242046 15.62182999 C248.9657283 17.80840916 248.95468823 19.99468132 248.94377422 22.18123245 C248.94316152 23.77367646 248.94342859 25.366121 248.94450474 26.95856476 C248.94495639 31.22435167 248.93336187 35.49002645 248.91928387 39.7557869 C248.90789685 43.75812001 248.90735778 47.76042581 248.90593243 51.76277542 C248.89543636 63.46900773 248.86751408 75.17521916 248.84172344 86.88142776 C248.80047344 113.03392776 248.75922344 139.18642776 248.71672344 166.13142776 C161.92672344 166.13142776 75.13672344 166.13142776 -14.28327656 166.13142776 C-14.34515156 127.42861526 -14.34515156 127.42861526 -14.40827656 87.94392776 C-14.42648457 79.79294388 -14.44469257 71.64195999 -14.46345234 63.24397659 C-14.47248554 53.30073929 -14.47248554 53.30073929 -14.47416401 48.64783096 C-14.47602945 45.39385636 -14.48353294 42.13994682 -14.49442768 38.88599014 C-14.50813823 34.73610293 -14.51226026 30.58631044 -14.50942111 26.43640268 C-14.51001486 24.91293317 -14.51398527 23.38946037 -14.52170682 21.86601031 C-14.53165258 19.80822947 -14.52925745 17.75081677 -14.52378559 15.6930275 C-14.52655097 13.96328296 -14.52655097 13.96328296 -14.52937222 12.19859409 C-14.20123854 8.10896256 -13.44085118 5.21183075 -10.40827656 2.38142776 C-7.00987628 0.38236878 -3.89926004 0.00660472 0 0 Z " fill="#F1F0FB" transform="translate(194.28327655792236,116.86857223510742)"/>
<path d="M0 0 C1.46612684 -0.00445668 1.46612684 -0.00445668 2.9618724 -0.0090034 C6.23425929 -0.01766905 9.50660951 -0.01919685 12.77900696 -0.02069092 C15.12654702 -0.0253206 17.47408632 -0.03034546 19.82162476 -0.03573608 C26.19783747 -0.04884757 32.57403965 -0.0553026 38.95026374 -0.05974674 C42.93543943 -0.06267947 46.92061226 -0.06678466 50.90578651 -0.07125092 C61.95064358 -0.08343982 72.99549872 -0.09373989 84.04036236 -0.09712601 C85.09973555 -0.09745536 85.09973555 -0.09745536 86.18051021 -0.09779136 C86.88839908 -0.09800964 87.59628794 -0.09822791 88.32562798 -0.09845281 C89.75995743 -0.09889626 91.19428688 -0.09934283 92.62861633 -0.09979248 C93.34008545 -0.10001391 94.05155458 -0.10023534 94.78458337 -0.10046348 C106.30661663 -0.10440946 117.82858657 -0.12185905 129.35059538 -0.145152 C141.19450093 -0.16890143 153.03837475 -0.18132949 164.88230449 -0.18249393 C171.52640238 -0.18340867 178.17042736 -0.18943153 184.81450462 -0.20731354 C191.06651536 -0.22381323 197.31836974 -0.22594038 203.57039452 -0.21717453 C205.86045247 -0.21640518 208.15051889 -0.22073333 210.44055557 -0.23063278 C213.57635903 -0.24338952 216.71161179 -0.23745501 219.84741211 -0.22705078 C221.19395253 -0.23913539 221.19395253 -0.23913539 222.5676958 -0.25146413 C228.98543781 -0.20195451 235.29278832 0.60534636 241.24116516 3.14044189 C245.99512048 8.08539364 246.36632671 14.42654826 246.36141968 20.92346191 C246.36270131 21.945393 246.36270131 21.945393 246.36400884 22.98796916 C246.36565526 25.26961447 246.360156 27.55118618 246.35469055 29.83282471 C246.35440847 31.46886188 246.35456682 33.10489918 246.35513306 34.74093628 C246.35542022 39.18271759 246.34953647 43.62447195 246.3425591 48.06624699 C246.33631219 52.70806301 246.3357207 57.34987964 246.33453369 61.99169922 C246.33142433 70.78181506 246.32321624 79.57191847 246.3131842 88.36202884 C246.30201083 98.36918464 246.29650952 108.37634104 246.29148877 118.38350153 C246.28103332 138.96915525 246.26344149 159.55479779 246.24116516 180.14044189 C247.320755 180.33742676 248.40034485 180.53441162 249.51264954 180.73736572 C250.95342745 181.00311181 252.39418139 181.26898787 253.83491516 181.53497314 C254.54357727 181.66391968 255.25223938 181.79286621 255.9823761 181.92572021 C261.83109057 183.00974919 267.54034255 184.43744192 273.24116516 186.14044189 C273.24116516 186.47044189 273.24116516 186.80044189 273.24116516 187.14044189 C165.33116516 187.14044189 57.42116516 187.14044189 -53.75883484 187.14044189 C-50.6593387 185.59069383 -48.37527112 184.66862503 -45.09867859 183.85137939 C-43.78480164 183.52266846 -43.78480164 183.52266846 -42.44438171 183.18731689 C-41.53752625 182.96559814 -40.63067078 182.74387939 -39.69633484 182.51544189 C-38.78561218 182.28598877 -37.87488953 182.05653564 -36.93656921 181.82012939 C-30.1528313 180.14044189 -30.1528313 180.14044189 -26.75883484 180.14044189 C-26.76067842 179.30867967 -26.76252201 178.47691744 -26.76442146 177.61995029 C-26.80862792 157.36299967 -26.84170476 137.10605738 -26.86245918 116.84906864 C-26.87276314 107.05286487 -26.88680663 97.25669333 -26.90971375 87.46051025 C-26.92967458 78.92020996 -26.94255768 70.37993302 -26.94701183 61.83961004 C-26.94961464 57.31935989 -26.95571405 52.79917653 -26.97029495 48.27894783 C-26.98392143 44.01988923 -26.98804727 39.76092464 -26.9850502 35.50184631 C-26.9855981 33.94305345 -26.98954527 32.38425727 -26.99724579 30.82548332 C-27.08605643 11.91214586 -27.08605643 11.91214586 -22.94633484 5.20294189 C-16.76551868 -0.62468477 -7.98490968 -0.0076127 0 0 Z M-20.75883484 11.14044189 C-21.99154335 14.57897059 -21.88198327 17.95860119 -21.87908936 21.58178711 C-21.88037338 22.54626518 -21.88037338 22.54626518 -21.88168335 23.53022766 C-21.88333702 25.68906434 -21.87781737 27.84782325 -21.87236023 30.00665283 C-21.87205388 31.57907229 -21.87218742 33.15149189 -21.87272549 34.72391129 C-21.8729513 38.93579508 -21.86715427 43.14765049 -21.86011505 47.35952759 C-21.85442129 51.31140228 -21.85415199 55.26327006 -21.85343933 59.21514893 C-21.84819143 70.77358368 -21.83423029 82.33201314 -21.82133484 93.89044189 C-21.80070984 119.71294189 -21.78008484 145.53544189 -21.75883484 172.14044189 C65.03116516 172.14044189 151.82116516 172.14044189 241.24116516 172.14044189 C241.30304016 146.00856689 241.36491516 119.87669189 241.42866516 92.95294189 C241.45597717 84.69754395 241.48328918 76.442146 241.51142883 67.93658447 C241.52146128 60.54537389 241.52146128 60.54537389 241.52749634 53.15415955 C241.53029465 49.85848448 241.54155033 46.56295396 241.55789185 43.26731873 C241.57845646 39.06437765 241.58464102 34.86164701 241.58038199 30.65866029 C241.58127268 29.11564659 241.58722922 27.57262559 241.59881055 26.0296551 C241.61372812 23.94549343 241.61013788 21.86214973 241.60192871 19.77796936 C241.60469409 18.61005765 241.60745947 17.44214594 241.61030865 16.23884296 C241.18654028 12.68194869 240.54247085 10.88612191 238.24116516 8.14044189 C233.16274507 5.57549407 227.86377562 5.85708022 222.30355835 5.87974548 C221.30698399 5.87591994 220.31040962 5.87209439 219.28363603 5.86815292 C215.94659003 5.85783982 212.60971662 5.8618119 209.2726593 5.86578369 C206.87921998 5.86143631 204.48578205 5.85625307 202.09234619 5.85029602 C196.26744611 5.83828954 190.44259969 5.83575421 184.61768872 5.83809628 C179.88247449 5.83988049 175.14727425 5.8381276 170.41206169 5.83387184 C169.40053048 5.83297906 169.40053048 5.83297906 168.36856429 5.83206824 C166.99854561 5.83085647 165.62852693 5.82964233 164.25850826 5.82842586 C151.41553278 5.81755381 138.57258357 5.8197113 125.72960662 5.82581071 C113.98500534 5.83098022 102.240487 5.81972294 90.49590213 5.80071249 C78.43052812 5.7813328 66.36519335 5.77307827 54.29980367 5.77683574 C47.5284044 5.7787475 40.75707573 5.77626261 33.98568916 5.7621212 C27.61877345 5.74956184 21.25202396 5.75146918 14.88511086 5.76453209 C12.54822484 5.76690147 10.21132719 5.7641503 7.8744545 5.75590897 C4.68469452 5.74547078 1.49549532 5.75351908 -1.69424438 5.76622009 C-2.61915316 5.75884581 -3.54406194 5.75147152 -4.49699825 5.74387378 C-10.79966379 5.79667683 -16.09811893 6.47972598 -20.75883484 11.14044189 Z " fill="#342839" transform="translate(201.7588348388672,110.85955810546875)"/>
<path d="M0 0 C2.07677103 -0.01962303 4.15389341 0.00445291 6.23046875 0.0390625 C5.35546875 5.7890625 5.35546875 5.7890625 4.23046875 8.0390625 C4.16013106 9.91285855 4.14616655 11.78907352 4.16796875 13.6640625 C4.17699219 14.66695312 4.18601562 15.66984375 4.1953125 16.703125 C4.20691406 17.47398437 4.21851563 18.24484375 4.23046875 19.0390625 C4.400625 18.25402344 4.57078125 17.46898437 4.74609375 16.66015625 C6.17939847 10.44662782 7.7156825 5.37184164 11.23046875 0.0390625 C12.68969568 0.15315843 14.14787473 0.28071794 15.60546875 0.4140625 C16.82363281 0.51847656 16.82363281 0.51847656 18.06640625 0.625 C20.23046875 1.0390625 20.23046875 1.0390625 22.23046875 3.0390625 C25.31591993 3.38529921 28.37840539 3.48207456 31.48046875 3.59765625 C32.38796875 3.74332031 33.29546875 3.88898438 34.23046875 4.0390625 C36.82597959 7.93232876 37.44081766 11.37773058 37.23046875 16.0390625 C35.54296875 18.6015625 35.54296875 18.6015625 33.23046875 20.0390625 C31.91046875 20.0390625 30.59046875 20.0390625 29.23046875 20.0390625 C29.23046875 20.6990625 29.23046875 21.3590625 29.23046875 22.0390625 C27.91046875 22.0390625 26.59046875 22.0390625 25.23046875 22.0390625 C25.23046875 22.6990625 25.23046875 23.3590625 25.23046875 24.0390625 C24.57046875 24.0390625 23.91046875 24.0390625 23.23046875 24.0390625 C23.23046875 24.6990625 23.23046875 25.3590625 23.23046875 26.0390625 C20.26046875 26.5340625 20.26046875 26.5340625 17.23046875 27.0390625 C17.72546875 28.0290625 17.72546875 28.0290625 18.23046875 29.0390625 C19.22046875 29.3690625 20.21046875 29.6990625 21.23046875 30.0390625 C21.23046875 29.3790625 21.23046875 28.7190625 21.23046875 28.0390625 C21.86855469 27.91789062 22.50664062 27.79671875 23.1640625 27.671875 C23.99035156 27.50429687 24.81664062 27.33671875 25.66796875 27.1640625 C26.49167969 27.00164062 27.31539063 26.83921875 28.1640625 26.671875 C28.84597656 26.46304688 29.52789062 26.25421875 30.23046875 26.0390625 C30.56046875 25.3790625 30.89046875 24.7190625 31.23046875 24.0390625 C38.64223346 22.74494485 38.64223346 22.74494485 41.23046875 24.0390625 C41.31160981 25.80913964 41.3697238 27.58028348 41.41796875 29.3515625 C41.47017578 30.83076172 41.47017578 30.83076172 41.5234375 32.33984375 C41.23046875 35.0390625 41.23046875 35.0390625 40.1171875 36.82421875 C37.43588024 38.55069196 35.00616841 38.76752135 31.85546875 39.1640625 C27.21612977 39.75743666 27.21612977 39.75743666 22.6171875 40.58984375 C20.15676042 41.05293559 17.91787283 41.1388745 15.41796875 41.1015625 C14.23267578 41.08802734 14.23267578 41.08802734 13.0234375 41.07421875 C12.43175781 41.06261719 11.84007812 41.05101562 11.23046875 41.0390625 C11.23046875 42.3590625 11.23046875 43.6790625 11.23046875 45.0390625 C13.7103713 44.73168589 16.1892761 44.41842167 18.66796875 44.1015625 C19.37501953 44.01455078 20.08207031 43.92753906 20.81054688 43.83789062 C24.31864843 43.65690059 24.31864843 43.65690059 27.23046875 42.0390625 C28.87387742 41.94051595 30.52161485 41.90933839 32.16796875 41.9140625 C33.06386719 41.91148437 33.95976563 41.90890625 34.8828125 41.90625 C37.23046875 42.0390625 37.23046875 42.0390625 39.23046875 43.0390625 C39.54296875 45.7890625 39.54296875 45.7890625 39.23046875 49.0390625 C35.57899295 52.74513902 32.72622145 53.61935906 27.6171875 54.0859375 C26.37001953 54.20839844 25.12285156 54.33085937 23.83789062 54.45703125 C22.54431641 54.56660156 21.25074219 54.67617187 19.91796875 54.7890625 C17.94860352 54.97662109 17.94860352 54.97662109 15.93945312 55.16796875 C12.70423446 55.47384397 9.46839532 55.76360232 6.23046875 56.0390625 C5.90046875 57.3590625 5.57046875 58.6790625 5.23046875 60.0390625 C14.47046875 59.7090625 23.71046875 59.3790625 33.23046875 59.0390625 C32.09388338 66.99516006 32.09388338 66.99516006 28.23046875 70.0390625 C25.1972009 71.55569643 22.35162275 71.21003724 18.98046875 71.2265625 C17.6759375 71.24074219 16.37140625 71.25492187 15.02734375 71.26953125 C11.35666507 71.04672256 8.64806614 70.32678186 5.23046875 69.0390625 C3.23677844 68.66986059 1.23767798 68.32580668 -0.76953125 68.0390625 C-0.76953125 69.3590625 -0.76953125 70.6790625 -0.76953125 72.0390625 C0.36935547 72.11253906 0.36935547 72.11253906 1.53125 72.1875 C2.52511719 72.26226562 3.51898438 72.33703125 4.54296875 72.4140625 C5.52910156 72.48367188 6.51523437 72.55328125 7.53125 72.625 C10.23046875 73.0390625 10.23046875 73.0390625 13.23046875 75.0390625 C14.94491764 75.47644946 16.67714659 75.84754938 18.41796875 76.1640625 C19.31902344 76.33164062 20.22007812 76.49921875 21.1484375 76.671875 C21.83550781 76.79304688 22.52257812 76.91421875 23.23046875 77.0390625 C23.23046875 77.6990625 23.23046875 78.3590625 23.23046875 79.0390625 C19.91332765 80.4606944 16.78827071 81.42915359 13.23046875 82.0390625 C13.12734375 82.6578125 13.02421875 83.2765625 12.91796875 83.9140625 C12.23046875 86.0390625 12.23046875 86.0390625 9.23046875 88.0390625 C7.91046875 88.0390625 6.59046875 88.0390625 5.23046875 88.0390625 C5.23046875 88.6990625 5.23046875 89.3590625 5.23046875 90.0390625 C-0.53003479 93.42511458 -8.326333 94.03384044 -14.7890625 92.58691406 C-18.89957703 91.3557551 -22.84084499 89.76457972 -26.76953125 88.0390625 C-26.76953125 87.3790625 -26.76953125 86.7190625 -26.76953125 86.0390625 C-28.08953125 86.0390625 -29.40953125 86.0390625 -30.76953125 86.0390625 C-30.76953125 61.9490625 -30.76953125 37.8590625 -30.76953125 13.0390625 C-28.29453125 14.0290625 -28.29453125 14.0290625 -25.76953125 15.0390625 C-25.71345703 16.66714844 -25.71345703 16.66714844 -25.65625 18.328125 C-25.5905525 19.77346989 -25.52410649 21.21878089 -25.45703125 22.6640625 C-25.43447266 23.37691406 -25.41191406 24.08976562 -25.38867188 24.82421875 C-25.14946157 29.56493198 -24.22688728 32.86221605 -21.76953125 37.0390625 C-21.67920075 32.70319858 -21.70447836 28.53509076 -22.26953125 24.2265625 C-22.44526605 22.83184183 -22.61080864 21.43582146 -22.76953125 20.0390625 C-22.88425781 19.07484375 -22.99898438 18.110625 -23.1171875 17.1171875 C-23.40783646 12.86842822 -23.63117155 9.48582816 -21.40625 5.75 C-16.7553726 1.07023516 -12.20302331 0.19579608 -5.7578125 0.015625 C-3.83859363 0.0306777 -1.91908702 0.02706752 0 0 Z " fill="#FDDBE2" transform="translate(478.76953125,195.9609375)"/>
<path d="M0 0 C3.5625 0.1875 3.5625 0.1875 5.5625 2.1875 C7.76078256 8.03677631 7.80351259 13.42725063 7.6875 19.625 C7.67847656 20.54732422 7.66945312 21.46964844 7.66015625 22.41992188 C7.6367766 24.67605809 7.60400916 26.93163684 7.5625 29.1875 C8.2225 29.1875 8.8825 29.1875 9.5625 29.1875 C9.2325 19.9475 8.9025 10.7075 8.5625 1.1875 C9.8825 1.1875 11.2025 1.1875 12.5625 1.1875 C12.5625 1.8475 12.5625 2.5075 12.5625 3.1875 C13.2225 3.1875 13.8825 3.1875 14.5625 3.1875 C14.5625 3.8475 14.5625 4.5075 14.5625 5.1875 C15.2225 5.1875 15.8825 5.1875 16.5625 5.1875 C16.5625 5.8475 16.5625 6.5075 16.5625 7.1875 C17.2225 7.1875 17.8825 7.1875 18.5625 7.1875 C18.5625 37.2175 18.5625 67.2475 18.5625 98.1875 C7.70854188 101.1476704 5.1521936 101.61239057 -4.4375 98.1875 C-4.4375 97.5275 -4.4375 96.8675 -4.4375 96.1875 C-5.5821875 95.7853125 -5.5821875 95.7853125 -6.75 95.375 C-9.32738618 94.23615495 -10.70704864 93.37333329 -12.4375 91.1875 C-12.4375 90.5275 -12.4375 89.8675 -12.4375 89.1875 C-13.613125 88.81625 -13.613125 88.81625 -14.8125 88.4375 C-17.76067108 87.03360901 -18.3399777 86.18074263 -19.4375 83.1875 C-17.9525 82.7853125 -17.9525 82.7853125 -16.4375 82.375 C-12.34426677 81.20668849 -8.40406508 79.72402205 -4.4375 78.1875 C-3.0453125 77.6925 -3.0453125 77.6925 -1.625 77.1875 C0.65166795 76.14673751 1.85445734 74.97687803 3.5625 73.1875 C4.2225 73.1875 4.8825 73.1875 5.5625 73.1875 C5.5625 72.5275 5.5625 71.8675 5.5625 71.1875 C6.2225 71.1875 6.8825 71.1875 7.5625 71.1875 C7.5625 70.5275 7.5625 69.8675 7.5625 69.1875 C0.47174697 69.75025818 -6.02751053 70.98250527 -12.4375 74.1875 C-14.4356051 74.28399939 -16.4370718 74.31730872 -18.4375 74.3125 C-20.04625 74.31636719 -20.04625 74.31636719 -21.6875 74.3203125 C-24.4375 74.1875 -24.4375 74.1875 -26.4375 73.1875 C-26.4375 72.5275 -26.4375 71.8675 -26.4375 71.1875 C-27.0975 71.1875 -27.7575 71.1875 -28.4375 71.1875 C-28.4375 70.5275 -28.4375 69.8675 -28.4375 69.1875 C-29.0975 69.1875 -29.7575 69.1875 -30.4375 69.1875 C-31.27569158 67.56500059 -32.1079116 65.93941503 -32.9375 64.3125 C-33.4015625 63.40757812 -33.865625 62.50265625 -34.34375 61.5703125 C-35.4375 59.1875 -35.4375 59.1875 -35.4375 57.1875 C-34.24125 57.3525 -33.045 57.5175 -31.8125 57.6875 C-22.710896 58.69399649 -13.4816584 58.63456534 -4.4375 57.1875 C-4.4375 56.8575 -4.4375 56.5275 -4.4375 56.1875 C-5.29915771 56.20321045 -5.29915771 56.20321045 -6.17822266 56.21923828 C-8.80626977 56.26107099 -11.43424654 56.286912 -14.0625 56.3125 C-14.96613281 56.32925781 -15.86976563 56.34601563 -16.80078125 56.36328125 C-21.76500152 56.39951643 -25.78161907 56.15194146 -30.4375 54.1875 C-30.4375 53.5275 -30.4375 52.8675 -30.4375 52.1875 C-31.05625 52.105 -31.675 52.0225 -32.3125 51.9375 C-34.4375 51.1875 -34.4375 51.1875 -35.5625 49.5625 C-36.71718295 46.42836056 -36.62911472 43.76823613 -36.5625 40.4375 C-36.53542969 38.68179688 -36.53542969 38.68179688 -36.5078125 36.890625 C-36.48460938 35.99859375 -36.46140625 35.1065625 -36.4375 34.1875 C-33.85680645 35.18138694 -31.56723094 36.10224824 -29.25 37.625 C-21.25145629 42.0686354 -13.44560016 42.60540155 -4.4375 42.1875 C-7.63873217 40.1941206 -10.78433519 39.75220407 -14.48071289 39.25170898 C-27.29854685 37.47693197 -27.29854685 37.47693197 -31.47265625 33.0703125 C-33.41487113 29.28024137 -33.060296 25.29936905 -32.4375 21.1875 C-32.1075 20.1975 -31.7775 19.2075 -31.4375 18.1875 C-28.6875 18.375 -28.6875 18.375 -25.4375 19.1875 C-24.09326661 20.84538785 -22.76131517 22.51326317 -21.4375 24.1875 C-17.39532441 26.77688521 -13.22832012 28.58864748 -8.4375 29.1875 C-8.4375 28.5275 -8.4375 27.8675 -8.4375 27.1875 C-9.241875 27.166875 -10.04625 27.14625 -10.875 27.125 C-16.44744008 25.6585684 -21.5271325 22.03344338 -24.76953125 17.203125 C-25.82390227 14.02151419 -24.75732319 12.12202226 -23.45703125 9.15625 C-21.74782562 5.85571499 -20.59740799 4.27303927 -17.4375 2.1875 C-14.00846995 1.66092905 -10.66999391 1.43695048 -7.203125 1.328125 C-3.79773513 1.15496958 -3.62930889 0.1979623 0 0 Z " fill="#F0CAE0" transform="translate(156.4375,192.8125)"/>
<path d="M0 0 C0.79921875 0.1652417 1.5984375 0.3304834 2.421875 0.50073242 C7.91827973 1.7836696 7.91827973 1.7836696 10.1875 5.1875 C12.51231174 6.20715427 14.84544699 7.20809602 17.1875 8.1875 C17.6825 9.1775 17.6825 9.1775 18.1875 10.1875 C19.2084375 10.744375 19.2084375 10.744375 20.25 11.3125 C23.83034535 13.59782682 26.49010772 16.38869277 29.41796875 19.4453125 C31.08288811 21.26387387 31.08288811 21.26387387 33.1875 22.1875 C33.1875 23.5075 33.1875 24.8275 33.1875 26.1875 C34.6725 26.6825 34.6725 26.6825 36.1875 27.1875 C36.21453381 29.12492341 36.23391125 31.06245479 36.25 33 C36.26160156 34.07894531 36.27320313 35.15789062 36.28515625 36.26953125 C36.1875 39.1875 36.1875 39.1875 35.1875 42.1875 C34.5275 42.1875 33.8675 42.1875 33.1875 42.1875 C33.105 42.765 33.0225 43.3425 32.9375 43.9375 C31.961518 46.86544601 30.55238777 48.23994537 28.1875 50.1875 C27.1975 50.1875 26.2075 50.1875 25.1875 50.1875 C24.8575 51.1775 24.5275 52.1675 24.1875 53.1875 C6.06068179 54.04727003 6.06068179 54.04727003 -1.8046875 47.5390625 C-5.78742024 43.75464011 -8.85439203 39.92495136 -10.6875 34.6875 C-12.14608941 31.4461902 -14.27124007 29.67100403 -16.8125 27.1875 C-17.7639547 25.86408851 -18.70063374 24.52997199 -19.625 23.1875 C-22.3376855 19.43365323 -25.21628712 17.36824323 -29.2734375 15.1953125 C-29.78132813 14.86273438 -30.28921875 14.53015625 -30.8125 14.1875 C-30.8125 13.5275 -30.8125 12.8675 -30.8125 12.1875 C-31.946875 11.878125 -33.08125 11.56875 -34.25 11.25 C-37.8125 10.1875 -37.8125 10.1875 -38.8125 9.1875 C-38.95365161 6.51691149 -38.85497107 3.86317762 -38.8125 1.1875 C-38.1525 1.1875 -37.4925 1.1875 -36.8125 1.1875 C-36.8125 0.5275 -36.8125 -0.1325 -36.8125 -0.8125 C-25.84958651 -4.4668045 -11.10183299 -2.33272719 0 0 Z " fill="#FDD1DC" transform="translate(518.8125,61.8125)"/>
<path d="M0 0 C108.9 0 217.8 0 330 0 C331 5 331 5 330 7 C326.89780816 8.03406395 324.77594137 8.12429236 321.52397633 8.12304783 C320.37893283 8.12503888 319.23388933 8.12702993 318.05414754 8.12908131 C316.15874519 8.12471205 316.15874519 8.12471205 314.22505188 8.12025452 C312.87365279 8.12069038 311.52225378 8.12156556 310.17085522 8.12284368 C306.44930789 8.12508574 302.72778918 8.12107128 299.00624549 8.11606562 C294.99603581 8.11175719 290.9858278 8.11320783 286.97561646 8.1139679 C280.02498808 8.11449288 273.07436908 8.11134873 266.12374306 8.10573006 C256.07423813 8.09761162 246.02473774 8.09499948 235.97522988 8.09374207 C219.67155368 8.09155209 203.36788247 8.08489347 187.06420898 8.07543945 C171.22436549 8.06626394 155.38452335 8.05918378 139.54467773 8.05493164 C138.56871835 8.05466892 137.59275897 8.05440619 136.58722506 8.05413551 C131.69124567 8.05283049 126.79526627 8.05156678 121.89928687 8.05032361 C81.26618777 8.03995268 40.63309417 8.02233583 0 8 C0 5.36 0 2.72 0 0 Z " fill="#8C7CB6" transform="translate(147,297)"/>
<path d="M0 0 C2.70616539 -0.00679025 5.41226306 -0.01552356 8.1184082 -0.02655029 C14.65771075 -0.04859549 21.19672375 -0.04406577 27.73603688 -0.02948709 C33.05957419 -0.01811823 38.38303129 -0.01669666 43.7065773 -0.02210617 C44.46906602 -0.02287234 45.23155475 -0.0236385 46.01714919 -0.02442788 C47.56695844 -0.02602679 49.11676767 -0.02764786 50.66657688 -0.02929084 C65.14491144 -0.04349401 79.62308683 -0.02724247 94.10139526 -0.00028901 C106.47555411 0.0220358 118.84947822 0.01817063 131.22363281 -0.00488281 C145.65292114 -0.03175311 160.08207045 -0.04211179 174.51138031 -0.02682149 C176.05557193 -0.02522904 177.59976357 -0.02365718 179.14395523 -0.02210617 C179.90338246 -0.02133479 180.6628097 -0.02056342 181.44524988 -0.01976866 C186.75015421 -0.0154845 192.05496902 -0.02266671 197.35985947 -0.03450394 C203.84252408 -0.04865356 210.32488679 -0.04447201 216.80751763 -0.01810022 C220.10374943 -0.00512483 223.39907475 -0.00229978 226.69536209 -0.01634598 C263.84872333 -0.15993315 263.84872333 -0.15993315 275.55908203 7.64697266 C167.64908203 7.64697266 59.73908203 7.64697266 -51.44091797 7.64697266 C-35.36537138 -0.39080064 -17.54243493 -0.07462494 0 0 Z " fill="#251A28" transform="translate(199.44091796875,290.35302734375)"/>
<path d="M0 0 C2.1796875 1.1015625 2.1796875 1.1015625 5.2421875 3.1015625 C5.2421875 3.7615625 5.2421875 4.4215625 5.2421875 5.1015625 C5.9021875 5.1015625 6.5621875 5.1015625 7.2421875 5.1015625 C7.2421875 5.7615625 7.2421875 6.4215625 7.2421875 7.1015625 C7.9021875 7.1015625 8.5621875 7.1015625 9.2421875 7.1015625 C9.7371875 9.0815625 9.7371875 9.0815625 10.2421875 11.1015625 C10.9021875 11.1015625 11.5621875 11.1015625 12.2421875 11.1015625 C15.26830465 17.91032609 15.39325496 26.29472311 13.2421875 33.4140625 C11.22518864 38.06192944 7.37083922 41.29653373 3.2421875 44.1015625 C2.5821875 44.1015625 1.9221875 44.1015625 1.2421875 44.1015625 C1.2421875 44.7615625 1.2421875 45.4215625 1.2421875 46.1015625 C-5.26397435 48.84099907 -11.45444198 48.56519345 -18.3203125 47.6015625 C-24.7615515 44.79084003 -30.08401295 40.15201801 -33.3203125 33.8515625 C-35.64488984 27.60964186 -36.12342869 20.81223271 -33.8046875 14.51171875 C-31.44674282 10.02714676 -28.63906446 6.35342225 -24.7578125 3.1015625 C-24.0978125 3.1015625 -23.4378125 3.1015625 -22.7578125 3.1015625 C-22.7578125 2.4415625 -22.7578125 1.7815625 -22.7578125 1.1015625 C-15.99031192 -2.13338042 -7.10667371 -2.31520532 0 0 Z " fill="#ED8EA3" transform="translate(374.7578125,172.8984375)"/>
<path d="M0 0 C2.475 0.495 2.475 0.495 5 1 C4.67 6.61 4.34 12.22 4 18 C4.66 18 5.32 18 6 18 C5.7525 17.2575 5.7525 17.2575 5.5 16.5 C4.54331787 11.71658935 4.46805761 7.59582718 6 3 C8 1 8 1 11.875 0.5625 C18.13173572 1.03319021 18.13173572 1.03319021 21 3 C22.30810782 5.58456787 23.20447491 8.21889603 24 11 C24.66 10.67 25.32 10.34 26 10 C27.4606285 12.64738916 28 13.89448334 28 17 C28.99 17.66 29.98 18.32 31 19 C31.4375 21.875 31.4375 21.875 31 25 C29 27.375 29 27.375 27 29 C27.99 29.33 28.98 29.66 30 30 C30 29.34 30 28.68 30 28 C31.65 28.33 33.3 28.66 35 29 C35 31.64 35 34.28 35 37 C34.01 37.33 33.02 37.66 32 38 C32.020625 39.134375 32.04125 40.26875 32.0625 41.4375 C32 45 32 45 31 46 C30.979375 47.134375 30.95875 48.26875 30.9375 49.4375 C30.27326628 55.59273247 25.93249159 59.5276116 22 64 C20.96939453 65.3303125 20.96939453 65.3303125 19.91796875 66.6875 C16.87668143 70.35438818 13.71113944 71.82175631 9 72.3125 C6 72 6 72 0 70 C0 46.9 0 23.8 0 0 Z M22 31 C22 31.66 22 32.32 22 33 C18.7 33.66 15.4 34.32 12 35 C12 35.66 12 36.32 12 37 C15.04913228 38.01111093 15.04913228 38.01111093 18 37 C18 36.34 18 35.68 18 35 C19.1446875 34.87625 19.1446875 34.87625 20.3125 34.75 C23.52373261 33.85384206 24.29374499 32.78388975 26 30 C23.9254644 29.8509288 23.9254644 29.8509288 22 31 Z " fill="#FDDDE3" transform="translate(448,122)"/>
<path d="M0 0 C1.8125 1.375 1.8125 1.375 3 3 C3 4.32 3 5.64 3 7 C3.66 7 4.32 7 5 7 C6.75897283 16.50227713 6.75897283 16.50227713 4.375 20.8125 C1.11298524 25.19046718 -2.41301929 28.99473678 -7 32 C-7.66 32 -8.32 32 -9 32 C-9 32.66 -9 33.32 -9 34 C-10.98 34.495 -10.98 34.495 -13 35 C-13 35.66 -13 36.32 -13 37 C-13.66 37 -14.32 37 -15 37 C-15 37.66 -15 38.32 -15 39 C-20.41176471 43 -20.41176471 43 -23 43 C-23 43.99 -23 44.98 -23 46 C-23.66 46 -24.32 46 -25 46 C-25.11601562 47.06347656 -25.11601562 47.06347656 -25.234375 48.1484375 C-26.20184234 51.75175972 -27.87002561 53.7643023 -30.25 56.625 C-31.01828125 57.56601563 -31.7865625 58.50703125 -32.578125 59.4765625 C-34.93612991 61.93345149 -36.95165502 63.50847041 -40 65 C-42.6875 64.9375 -42.6875 64.9375 -45 64 C-48.35512502 58.6596626 -47.42424067 52.43427667 -46.1875 46.5 C-45.05535402 41.9076332 -43.55209586 37.4641965 -42 33 C-41.24595256 30.68186405 -40.49410148 28.36306053 -39.74609375 26.04296875 C-38.97619155 23.93480722 -38.04031039 21.9868589 -37 20 C-36.34 20 -35.68 20 -35 20 C-34.938125 19.154375 -34.87625 18.30875 -34.8125 17.4375 C-33.81850182 13.23212309 -31.97837736 10.13611074 -29 7 C-28.34 7 -27.68 7 -27 7 C-27 6.34 -27 5.68 -27 5 C-25.34928604 3.97388051 -23.68029994 2.97691857 -22 2 C-21.2265625 1.195625 -21.2265625 1.195625 -20.4375 0.375 C-15.82061361 -4.0411522 -5.10625253 -2.93996358 0 0 Z " fill="#FDBBC9" transform="translate(181,25)"/>
<path d="M0 0 C1.47776867 -0.00128164 1.47776867 -0.00128164 2.98539126 -0.00258917 C6.28346176 -0.00423506 9.58148131 0.00126286 12.87954712 0.00672913 C15.24493407 0.00701122 17.61032111 0.00685284 19.97570801 0.00628662 C26.39664319 0.0059995 32.81755973 0.01188256 39.23849058 0.01886058 C45.26911331 0.02495281 51.29973811 0.02548369 57.33036335 0.02651245 C69.27319375 0.02869971 81.21601731 0.03535096 93.15884399 0.04481506 C104.75845302 0.05399761 116.35806019 0.06107433 127.95767212 0.06532288 C128.67297472 0.0655856 129.38827731 0.06584832 130.12525575 0.06611901 C133.71380903 0.06742407 137.30236233 0.06868777 140.89091563 0.06993091 C170.64966338 0.08029337 200.40840345 0.09797729 230.16714478 0.12025452 C230.16714478 0.45025452 230.16714478 0.78025452 230.16714478 1.12025452 C229.4277727 1.12356466 228.68840063 1.12687481 227.92662334 1.13028526 C209.94993909 1.21144652 191.97334115 1.30351627 173.99677563 1.4077816 C165.30350193 1.45793913 156.61023781 1.50438165 147.91690063 1.54212952 C140.34126739 1.57503351 132.76570781 1.61485582 125.1901558 1.66304457 C121.17762295 1.68832548 117.16513907 1.710102 113.15254784 1.72359848 C109.37770377 1.73640448 105.60302749 1.75844287 101.82827568 1.78763771 C100.44114238 1.79672497 99.05398206 1.80240639 97.66682053 1.80446815 C95.77607741 1.80778242 93.88537152 1.82442097 91.9947052 1.84178162 C90.93556506 1.84731237 89.87642492 1.85284313 88.78518963 1.85854149 C85.93406678 1.93678346 85.93406678 1.93678346 83.16714478 4.12025452 C131.67714478 4.45025452 180.18714478 4.78025452 230.16714478 5.12025452 C230.16714478 5.45025452 230.16714478 5.78025452 230.16714478 6.12025452 C228.30601878 6.12383705 228.30601878 6.12383705 226.40729427 6.12749195 C196.95030433 6.18485941 167.49339386 6.25759536 138.03649267 6.3492408 C134.41036598 6.36050888 130.78423891 6.37164734 127.15811157 6.38270569 C126.43621897 6.38490937 125.71432637 6.38711306 124.97055823 6.38938352 C113.28381856 6.42474996 101.59707895 6.44961777 89.91030561 6.47060154 C77.91740739 6.4923688 65.92457857 6.52542801 53.93173939 6.56895608 C47.19604035 6.59307973 40.46041037 6.61199471 33.7246685 6.61786842 C27.38570514 6.62390775 21.04693848 6.64386629 14.70804787 6.67453003 C12.38085673 6.68332867 10.0536399 6.68702907 7.7264328 6.68526268 C4.54945463 6.68361256 1.37307797 6.70028765 -1.80381775 6.7215271 C-2.72503735 6.71667952 -3.64625694 6.71183195 -4.59539229 6.70683748 C-10.06014233 6.76714379 -14.08926654 7.29202957 -18.83285522 10.12025452 C-21.04361152 13.70995906 -21.08975366 17.07320254 -21.11132812 21.22628784 C-21.12249161 22.4532135 -21.13365509 23.68013916 -21.14515686 24.94424438 C-21.14752156 26.29563873 -21.14969726 27.64703342 -21.15170288 28.99842834 C-21.16100541 30.42772486 -21.17117457 31.85701596 -21.18214417 33.28630066 C-21.20942165 37.1598365 -21.22458687 41.03333602 -21.23757219 44.90694261 C-21.25321259 48.95755566 -21.27999992 53.00809466 -21.30560303 57.05865479 C-21.35237472 64.72601731 -21.38912661 72.3933938 -21.4222759 80.060826 C-21.46050866 88.79117229 -21.5099158 97.52144416 -21.56026006 106.2517277 C-21.66355597 124.20784883 -21.75282398 142.16401539 -21.83285522 160.12025452 C-22.16285522 160.12025452 -22.49285522 160.12025452 -22.83285522 160.12025452 C-23.16285522 163.09025452 -23.49285522 166.06025452 -23.83285522 169.12025452 C-24.49285522 169.12025452 -25.15285522 169.12025452 -25.83285522 169.12025452 C-25.83285522 172.75025452 -25.83285522 176.38025452 -25.83285522 180.12025452 C-26.16285522 180.12025452 -26.49285522 180.12025452 -26.83285522 180.12025452 C-26.8796166 159.02314102 -26.91486435 137.9260361 -26.93647957 116.82888126 C-26.94678352 107.03267749 -26.96082702 97.23650596 -26.98373413 87.44032288 C-27.00369497 78.90002258 -27.01657806 70.35974564 -27.02103221 61.81942266 C-27.02363503 57.29917251 -27.02973443 52.77898916 -27.04431534 48.25876045 C-27.05794181 43.99970186 -27.06206765 39.74073726 -27.05907059 35.48165894 C-27.05961849 33.92286607 -27.06356566 32.36406989 -27.07126617 30.80529594 C-27.16007682 11.89195848 -27.16007682 11.89195848 -23.02035522 5.18275452 C-16.81759226 -0.66556485 -8.00886476 -0.02545811 0 0 Z " fill="#574553" transform="translate(201.83285522460938,110.87974548339844)"/>
<path d="M0 0 C29.05407531 -0.06845187 58.10814275 -0.1215363 87.16228259 -0.15319599 C90.59313319 -0.15694807 94.02398363 -0.16083104 97.45483398 -0.16479492 C98.4793559 -0.16597532 98.4793559 -0.16597532 99.52457523 -0.16717956 C110.58086464 -0.18023008 121.63710722 -0.20388197 132.69336886 -0.23145839 C144.03985644 -0.25952246 155.38630932 -0.27595385 166.7328338 -0.28226548 C173.10527703 -0.28617864 179.47761406 -0.29538466 185.85002327 -0.31719017 C191.84749365 -0.33754649 197.84481403 -0.34383546 203.84231567 -0.33932304 C206.04374952 -0.34014862 208.24518836 -0.34611924 210.44659233 -0.35761642 C213.45274345 -0.37254691 216.45832852 -0.36895131 219.4644928 -0.36076355 C220.33513007 -0.36950207 221.20576734 -0.3782406 222.10278755 -0.38724393 C227.4700519 -0.34774409 231.29720165 0.32465568 236 3 C241.7505163 10.10073032 240.53787221 20.75634022 240.45410156 29.37353516 C240.45297147 31.01045707 240.4536101 32.64738101 240.45587158 34.28430176 C240.45701335 38.70110452 240.43359173 43.11746761 240.40557575 47.53416872 C240.38047194 52.15991229 240.37821305 56.78566733 240.37347412 61.41146851 C240.36107063 70.15897599 240.32828477 78.90628213 240.28807616 87.65370119 C240.24327644 97.61743933 240.22135083 107.58118738 240.20129442 117.54500127 C240.15954968 138.03011297 240.08924898 158.51504377 240 179 C239.67 179 239.34 179 239 179 C238.67 164.81 238.34 150.62 238 136 C236.02170928 137.97829072 236.74496068 141.82327027 236.68359375 144.53515625 C236.66281265 145.28840683 236.64203156 146.04165741 236.62062073 146.81773376 C236.55504575 149.2325599 236.49620379 151.64749798 236.4375 154.0625 C236.3943223 155.69597529 236.35070827 157.3294391 236.30664062 158.96289062 C236.19935638 162.97514464 236.09811179 166.98751164 236 171 C235.67 171 235.34 171 235 171 C234.99503478 169.7763656 234.99503478 169.7763656 234.98996925 168.52801132 C234.90879194 148.69000339 234.81671682 128.85207224 234.71247292 109.0141716 C234.66232512 99.42075957 234.61588245 89.82735618 234.578125 80.23388672 C234.54521093 71.87340907 234.50538295 63.51299803 234.45720994 55.15259385 C234.43193914 50.72475609 234.41015957 46.29696255 234.39665604 41.86907196 C234.38384097 37.70272304 234.36179256 33.53652573 234.33261681 29.37026024 C234.32353669 27.84002762 234.31784978 26.30977058 234.31578636 24.77951241 C234.31246685 22.69192649 234.29699838 20.60477125 234.2784729 18.51727295 C234.27294214 17.34843945 234.26741138 16.17960594 234.26171303 14.97535324 C234.00385795 12.04386006 233.67507723 10.39685163 232 8 C225.08202522 4.37749288 218.35606218 4.5648636 210.67675781 4.58349609 C209.33764391 4.57610088 207.99853673 4.56739123 206.65943909 4.55747986 C203.02113032 4.53417815 199.38299258 4.52900369 195.74461842 4.52682066 C191.85929263 4.52108437 187.97407102 4.49771979 184.08880615 4.47622681 C176.65836988 4.43763087 169.22796369 4.4135081 161.79745269 4.39510214 C148.78247206 4.36229515 135.76758653 4.30223116 122.75270224 4.24327016 C118.73476074 4.22507126 114.7168188 4.20752796 110.6988678 4.19155121 C76.79504352 4.05578281 42.89883886 3.58271303 9 3 C9 2.67 9 2.34 9 2 C6.03 1.67 3.06 1.34 0 1 C0 0.67 0 0.34 0 0 Z " fill="#35263A" transform="translate(208,112)"/>
<path d="M0 0 C1.06347656 0.08894531 2.12695312 0.17789063 3.22265625 0.26953125 C4.28355469 0.34558594 5.34445313 0.42164062 6.4375 0.5 C9.28515625 1.08203125 9.28515625 1.08203125 11.15234375 2.30859375 C12.6971946 4.72708439 12.5834816 6.42501383 12.47265625 9.26953125 C12.44558594 10.17058594 12.41851562 11.07164062 12.390625 12 C12.35582031 12.68707031 12.32101563 13.37414062 12.28515625 14.08203125 C14.08982608 12.27736142 13.70008183 9.35100309 13.90625 6.89453125 C14.09380859 5.99734375 14.09380859 5.99734375 14.28515625 5.08203125 C14.94515625 4.75203125 15.60515625 4.42203125 16.28515625 4.08203125 C16.28515625 22.56203125 16.28515625 41.04203125 16.28515625 60.08203125 C3.28515625 60.08203125 3.28515625 60.08203125 -1.71484375 57.08203125 C-5.42147839 53.00473314 -8.5571416 48.59303433 -11.71484375 44.08203125 C-6.76484375 44.41203125 -1.81484375 44.74203125 3.28515625 45.08203125 C3.28515625 44.42203125 3.28515625 43.76203125 3.28515625 43.08203125 C2.30933594 42.90027344 1.33351562 42.71851563 0.328125 42.53125 C-1.58033203 42.15419922 -1.58033203 42.15419922 -3.52734375 41.76953125 C-4.79191406 41.52589844 -6.05648437 41.28226563 -7.359375 41.03125 C-11.88275673 39.75164376 -11.88275673 39.75164376 -13.71484375 37.08203125 C-14.40234375 33.89453125 -14.40234375 33.89453125 -14.71484375 31.08203125 C-9.63335359 30.71458664 -7.06701404 32.42007139 -2.8984375 35.0859375 C-0.4777044 36.46424917 -0.4777044 36.46424917 3.28515625 35.08203125 C0.64515625 34.09203125 -1.99484375 33.10203125 -4.71484375 32.08203125 C-4.71484375 31.42203125 -4.71484375 30.76203125 -4.71484375 30.08203125 C-5.70484375 30.08203125 -6.69484375 30.08203125 -7.71484375 30.08203125 C-7.71484375 29.42203125 -7.71484375 28.76203125 -7.71484375 28.08203125 C-8.35421875 27.93765625 -8.99359375 27.79328125 -9.65234375 27.64453125 C-11.71484375 27.08203125 -11.71484375 27.08203125 -12.71484375 26.08203125 C-12.75548207 24.4158601 -12.75756475 22.7481503 -12.71484375 21.08203125 C-10.73484375 21.41203125 -8.75484375 21.74203125 -6.71484375 22.08203125 C-6.71484375 22.74203125 -6.71484375 23.40203125 -6.71484375 24.08203125 C-3.41484375 25.07203125 -0.11484375 26.06203125 3.28515625 27.08203125 C3.28515625 26.42203125 3.28515625 25.76203125 3.28515625 25.08203125 C2.66640625 24.95828125 2.04765625 24.83453125 1.41015625 24.70703125 C-0.71484375 24.08203125 -0.71484375 24.08203125 -2.71484375 22.08203125 C-3.68421875 21.77265625 -4.65359375 21.46328125 -5.65234375 21.14453125 C-10.09383062 19.60360723 -10.09383062 19.60360723 -11.71484375 17.08203125 C-11.9674978 13.98701917 -12.11419388 11.88073152 -10.71484375 9.08203125 C-9.39484375 9.08203125 -8.07484375 9.08203125 -6.71484375 9.08203125 C-6.71484375 9.74203125 -6.71484375 10.40203125 -6.71484375 11.08203125 C-6.05484375 11.08203125 -5.39484375 11.08203125 -4.71484375 11.08203125 C-3.71484375 12.08203125 -2.71484375 13.08203125 -1.71484375 14.08203125 C-0.06878549 15.11560272 1.59479067 16.12263457 3.28515625 17.08203125 C3.28515625 16.42203125 3.28515625 15.76203125 3.28515625 15.08203125 C2.62515625 15.08203125 1.96515625 15.08203125 1.28515625 15.08203125 C1.28515625 14.42203125 1.28515625 13.76203125 1.28515625 13.08203125 C0.64578125 12.83453125 0.00640625 12.58703125 -0.65234375 12.33203125 C-2.71484375 11.08203125 -2.71484375 11.08203125 -3.46484375 8.95703125 C-3.54734375 8.33828125 -3.62984375 7.71953125 -3.71484375 7.08203125 C-4.37484375 7.08203125 -5.03484375 7.08203125 -5.71484375 7.08203125 C-4.61866356 0.13955674 -4.61866356 0.13955674 0 0 Z " fill="#FBD3E0" transform="translate(158.71484375,126.91796875)"/>
<path d="M0 0 C-0.33 50.16 -0.66 100.32 -1 152 C-1.33 152 -1.66 152 -2 152 C-2.33 154.97 -2.66 157.94 -3 161 C-3.66 161 -4.32 161 -5 161 C-5 164.63 -5 168.26 -5 172 C-5.33 172 -5.66 172 -6 172 C-6.02336718 150.86833686 -6.04099796 129.73667585 -6.05181217 108.6050024 C-6.056967 98.79306036 -6.06399424 88.98112634 -6.07543945 79.16918945 C-6.08541109 70.61645663 -6.09185935 62.06372963 -6.09408849 53.51099116 C-6.09539138 48.98300205 -6.09845058 44.45502959 -6.10573006 39.92704582 C-6.11252938 35.66308738 -6.11460899 31.3991524 -6.11310768 27.13518906 C-6.11338225 25.5723349 -6.11536413 24.00947994 -6.11920547 22.44663048 C-6.12420388 20.3076891 -6.12297573 18.16883551 -6.12025452 16.02989197 C-6.12117631 14.83432647 -6.1220981 13.63876097 -6.12304783 12.40696621 C-5.9941282 8.83742087 -5.74631483 5.4963821 -5 2 C-2 0 -2 0 0 0 Z " fill="#382837" transform="translate(181,119)"/>
<path d="M0 0 C0.33 0 0.66 0 1 0 C1 54.78 1 109.56 1 166 C0.67 166 0.34 166 0 166 C-0.33 151.81 -0.66 137.62 -1 123 C-2.97829072 124.97829072 -2.25503932 128.82327027 -2.31640625 131.53515625 C-2.33718735 132.28840683 -2.35796844 133.04165741 -2.37937927 133.81773376 C-2.44495425 136.2325599 -2.50379621 138.64749798 -2.5625 141.0625 C-2.6056777 142.69597529 -2.64929173 144.3294391 -2.69335938 145.96289062 C-2.80064362 149.97514464 -2.90188821 153.98751164 -3 158 C-3.33 158 -3.66 158 -4 158 C-4 106.19 -4 54.38 -4 1 C-2.515 1.99 -2.515 1.99 -1 3 C-0.67 2.01 -0.34 1.02 0 0 Z " fill="#4C3D4E" transform="translate(447,125)"/>
<path d="M0 0 C2.47206536 0.0054429 4.94395514 -0.00002898 7.41601562 -0.00634766 C9.00976602 -0.00568805 10.60351631 -0.00440933 12.19726562 -0.00244141 C12.92543488 -0.00446564 13.65360413 -0.00648987 14.40383911 -0.00857544 C18.477478 0.01007026 22.31754756 0.34195113 26.31445312 1.13037109 C26.31445312 4.76037109 26.31445312 8.39037109 26.31445312 12.13037109 C18.64778646 12.13037109 10.98111979 12.13037109 3.31445312 12.13037109 C2.81945312 10.64537109 2.81945312 10.64537109 2.31445312 9.13037109 C0.99445313 9.13037109 -0.32554687 9.13037109 -1.68554688 9.13037109 C-2.01554687 10.12037109 -2.34554688 11.11037109 -2.68554688 12.13037109 C-3.67554688 12.13037109 -4.66554688 12.13037109 -5.68554688 12.13037109 C-5.68554688 11.14037109 -5.68554688 10.15037109 -5.68554688 9.13037109 C-6.30429687 8.98599609 -6.92304688 8.84162109 -7.56054688 8.69287109 C-9.68554688 8.13037109 -9.68554688 8.13037109 -11.68554688 7.13037109 C-11.68554688 7.79037109 -11.68554688 8.45037109 -11.68554688 9.13037109 C-12.67554688 9.13037109 -13.66554688 9.13037109 -14.68554688 9.13037109 C-15.01554687 10.12037109 -15.34554688 11.11037109 -15.68554688 12.13037109 C-18.49810969 12.15721422 -21.31041929 12.17713297 -24.12304688 12.19287109 C-24.92548828 12.20125 -25.72792969 12.20962891 -26.5546875 12.21826172 C-28.59849908 12.2268854 -30.64238589 12.18265259 -32.68554688 12.13037109 C-33.68554688 11.13037109 -33.68554688 11.13037109 -33.81835938 9.09912109 C-33.81578125 8.28443359 -33.81320312 7.46974609 -33.81054688 6.63037109 C-33.813125 5.81568359 -33.81570313 5.00099609 -33.81835938 4.16162109 C-33.68554688 2.13037109 -33.68554688 2.13037109 -32.68554688 1.13037109 C-21.83924 -0.02649589 -10.89542789 -0.02857961 0 0 Z " fill="#F0EDFA" transform="translate(313.685546875,227.86962890625)"/>
<path d="M0 0 C108.24 0 216.48 0 328 0 C326.68 0.33 325.36 0.66 324 1 C324 1.66 324 2.32 324 3 C323.44054687 2.99476318 322.88109375 2.98952637 322.3046875 2.98413086 C309.38142538 2.88154467 296.47870404 3.0331476 283.5625 3.4375 C282.27408203 3.47673584 280.98566406 3.51597168 279.65820312 3.55639648 C273.80757153 3.75010385 267.97339086 3.98855502 262.13244534 4.37857151 C252.75463611 4.99353992 243.4223389 5.13195529 234.02734375 5.09765625 C232.48222398 5.09578364 230.93710361 5.09436374 229.39198303 5.09336853 C225.38909165 5.08960959 221.38623845 5.07983874 217.38336182 5.06866455 C213.27315792 5.05830519 209.16294765 5.05384029 205.05273438 5.04882812 C197.03513902 5.03820817 189.0175743 5.02121497 181 5 C181 4.67 181 4.34 181 4 C203.77 3.67 226.54 3.34 250 3 C250 2.67 250 2.34 250 2 C167.5 1.67 85 1.34 0 1 C0 0.67 0 0.34 0 0 Z " fill="#E1D6ED" transform="translate(148,305)"/>
<path d="M0 0 C0.33 0.99 0.66 1.98 1 3 C2.32 3.66 3.64 4.32 5 5 C4.67 8.3 4.34 11.6 4 15 C3.34 15 2.68 15 2 15 C2.05329468 15.89307861 2.05329468 15.89307861 2.10766602 16.80419922 C2.26498794 19.49416774 2.41384562 22.18453917 2.5625 24.875 C2.61857422 25.81214844 2.67464844 26.74929687 2.73242188 27.71484375 C2.78076172 28.61074219 2.82910156 29.50664062 2.87890625 30.4296875 C2.9260376 31.25710449 2.97316895 32.08452148 3.02172852 32.93701172 C3 35 3 35 2 37 C-4.97761194 37.31716418 -4.97761194 37.31716418 -8 35 C-13.52492448 26.38761772 -15.20083638 18.94710816 -13.65234375 8.69921875 C-13.1875 6.8125 -13.1875 6.8125 -12 4 C-11.01 3.67 -10.02 3.34 -9 3 C-9 2.34 -9 1.68 -9 1 C-6.04335481 -0.4783226 -3.25770263 -0.06032783 0 0 Z " fill="#ECAFC5" transform="translate(99,109)"/>
<path d="M0 0 C1.25167969 0.16886719 2.50335937 0.33773437 3.79296875 0.51171875 C10.28334735 1.23739061 16.75282103 0.95131101 23.26757812 0.69726562 C30.35374806 0.56595019 30.35374806 0.56595019 33.6171875 2.7578125 C35.80389021 6.303483 35.80199049 8.84180033 36 13 C35.67 13.99 35.34 14.98 35 16 C34.34 16 33.68 16 33 16 C33 16.66 33 17.32 33 18 C24.46595715 20.46718774 16.7558875 19.57104782 8.9609375 15.484375 C6.79190366 13.84247688 5.99488017 12.50324688 5 10 C4.34 10 3.68 10 3 10 C0.96564469 6.27034861 0 4.33094958 0 0 Z " fill="#FBCED8" transform="translate(517,134)"/>
<path d="M0 0 C0 0.99 0 1.98 0 3 C-0.99 3.495 -0.99 3.495 -2 4 C89.08 4.33 180.16 4.66 274 5 C274 5.33 274 5.66 274 6 C174.34 6 74.68 6 -28 6 C-23.40453542 3.70226771 -18.96006129 2.55605822 -14 1.3125 C-12.64648438 0.95575195 -12.64648438 0.95575195 -11.265625 0.59179688 C-10.39421875 0.37201172 -9.5228125 0.15222656 -8.625 -0.07421875 C-7.83351562 -0.27619873 -7.04203125 -0.47817871 -6.2265625 -0.6862793 C-3.83803616 -1.02282056 -2.27584485 -0.74205272 0 0 Z " fill="#271936" transform="translate(176,292)"/>
<path d="M0 0 C0.33 0 0.66 0 1 0 C1.33 29.04 1.66 58.08 2 88 C2.66 88 3.32 88 4 88 C4 88.66 4 89.32 4 90 C89.47 90 174.94 90 263 90 C263 90.33 263 90.66 263 91 C176.21 91 89.42 91 0 91 C0 60.97 0 30.94 0 0 Z " fill="#BCB6CF" transform="translate(180,192)"/>
<path d="M0 0 C3.34625024 2.52676039 4.67977847 4.03933542 6 8 C6 11.3 6 14.6 6 18 C-1.26 18 -8.52 18 -16 18 C-16.49079755 6.83435583 -16.49079755 6.83435583 -14.125 2.8125 C-9.86889381 -0.81770822 -5.41079151 -0.77418558 0 0 Z " fill="#8F83B9" transform="translate(316,170)"/>
<path d="M0 0 C0.33 0 0.66 0 1 0 C1 34.32 1 68.64 1 104 C2.32 104 3.64 104 5 104 C5 116.87 5 129.74 5 143 C4.67 143 4.34 143 4 143 C3.67 145.97 3.34 148.94 3 152 C2.34 152 1.68 152 1 152 C1 155.63 1 159.26 1 163 C0.67 163 0.34 163 0 163 C0 109.21 0 55.42 0 0 Z " fill="#5F475A" transform="translate(175,128)"/>
<path d="M0 0 C34.65 0 69.3 0 105 0 C105 0.33 105 0.66 105 1 C102.69 1 100.38 1 98 1 C98 1.66 98 2.32 98 3 C85.96066349 3.02316681 73.92133229 3.04093727 61.88197803 3.05181217 C56.29167201 3.05703148 50.70138123 3.06411191 45.11108398 3.07543945 C39.71649208 3.08630208 34.32191485 3.09228402 28.92731285 3.09487724 C26.86882992 3.09672539 24.8103478 3.10033432 22.75187111 3.10573006 C19.86947517 3.11298522 16.98713992 3.11398904 14.10473633 3.11352539 C13.25309402 3.11712067 12.40145172 3.12071594 11.52400208 3.12442017 C7.54681635 3.11749419 3.88226905 2.9910068 0 2 C0 1.34 0 0.68 0 0 Z " fill="#DEDBF4" transform="translate(260,273)"/>
<path d="M0 0 C3.35250701 0.57575664 4.93818629 1.59306263 7.25 4.0625 C7.77078125 4.61035156 8.2915625 5.15820312 8.828125 5.72265625 C9.21484375 6.14417969 9.6015625 6.56570312 10 7 C13.27773504 6.24849977 13.27773504 6.24849977 15 3 C15.66 3 16.32 3 17 3 C17 2.34 17 1.68 17 1 C18.32 0.67 19.64 0.34 21 0 C21.6875 1.8125 21.6875 1.8125 22 4 C20.6875 5.75 20.6875 5.75 19 7 C18.34 7 17.68 7 17 7 C16.67 7.99 16.34 8.98 16 10 C15.34 10 14.68 10 14 10 C14.49371094 10.53109375 14.98742187 11.0621875 15.49609375 11.609375 C16.45708984 12.66898438 16.45708984 12.66898438 17.4375 13.75 C18.07558594 14.44609375 18.71367187 15.1421875 19.37109375 15.859375 C20.99081325 17.98792725 21.58267256 19.39023405 22 22 C20.68 22.33 19.36 22.66 18 23 C16.35 21.02 14.7 19.04 13 17 C9.66855957 17.38439697 8.62327438 18.32963491 6 20.625 C3 23 3 23 0.625 22.8125 C0.08875 22.544375 -0.4475 22.27625 -1 22 C-0.4409112 18.75728494 0.4132178 17.06942576 3 15 C3.66 15 4.32 15 5 15 C5.86358623 13.21858253 5.86358623 13.21858253 6 11 C4.10413616 8.85410577 4.10413616 8.85410577 2 7 C2 6.34 2 5.68 2 5 C1.01 4.67 0.02 4.34 -1 4 C-0.67 2.68 -0.34 1.36 0 0 Z " fill="#FCF0EE" transform="translate(354,185)"/>
<path d="M0 0 C15.84 0 31.68 0 48 0 C48 1.65 48 3.3 48 5 C32.16 5 16.32 5 0 5 C0 3.35 0 1.7 0 0 Z " fill="#897EB5" transform="translate(286,214)"/>
<path d="M0 0 C1.125 5.625 1.125 5.625 0 9 C-1.99622361 11.8834341 -3.12266284 12.02286934 -6.6875 12.6875 C-7.780625 12.790625 -8.87375 12.89375 -10 13 C-10 13.66 -10 14.32 -10 15 C-11.63260714 16.37482707 -13.30225062 17.70647667 -15 19 C-15.66 19.66 -16.32 20.32 -17 21 C-17.66 20.67 -18.32 20.34 -19 20 C-18.10216501 13.91598655 -17.33636008 9.61612524 -13 5 C-12.67 4.01 -12.34 3.02 -12 2 C-7.9083139 0.19204568 -4.44280672 -0.21156222 0 0 Z " fill="#FAC8D6" transform="translate(392,56)"/>
<path d="M0 0 C1.65 0 3.3 0 5 0 C4.96519531 0.66386719 4.93039063 1.32773438 4.89453125 2.01171875 C4.72844865 7.42917483 4.93831044 10.40746566 8 15 C8.41291057 19.12910567 8.33909307 20.4913604 6 24 C3.0625 24.4375 3.0625 24.4375 0 24 C-2.22012491 21.77987509 -2.94341235 20.38834665 -3.3984375 17.265625 C-3.34811122 10.79030986 -2.72100369 5.89550799 0 0 Z " fill="#F6BCCB" transform="translate(120,80)"/>
<path d="M0 0 C0.80566406 0.04833984 1.61132812 0.09667969 2.44140625 0.14648438 C3.28316406 0.20255859 4.12492187 0.25863281 4.9921875 0.31640625 C6.26642578 0.3947168 6.26642578 0.3947168 7.56640625 0.47460938 C9.66697874 0.60442003 11.76712941 0.74102365 13.8671875 0.87890625 C13.34825243 4.10486342 13.07250467 5.63385027 10.9296875 8.19140625 C6.57855116 10.58897117 2.73270607 10.6911935 -2.1328125 9.87890625 C-4.7578125 8.19140625 -4.7578125 8.19140625 -6.1328125 5.87890625 C-6.3828125 3.12890625 -6.3828125 3.12890625 -6.1328125 0.87890625 C-3.77622853 -0.29938574 -2.60708014 -0.16523747 0 0 Z " fill="#E1ACC3" transform="translate(82.1328125,158.12109375)"/>
<path d="M0 0 C1.32 0.66 2.64 1.32 4 2 C3.93039063 2.66386719 3.86078125 3.32773438 3.7890625 4.01171875 C3.73492187 4.89472656 3.68078125 5.77773437 3.625 6.6875 C3.55539063 7.55761719 3.48578125 8.42773438 3.4140625 9.32421875 C4.12393378 12.56596425 5.51024696 13.99665419 8.14160156 15.97094727 C11.43986941 17.79730026 14.86034555 18.18526812 18.5625 18.625 C23.6896138 19.28426398 27.73288831 19.80600352 32 23 C32 23.33 32 23.66 32 24 C22.42526285 24.56414163 11.31843622 24.52110888 3.62890625 17.984375 C2 16 2 16 2 14 C1.01 13.67 0.02 13.34 -1 13 C-1.02696365 11.20841511 -1.04637917 9.41671527 -1.0625 7.625 C-1.07410156 6.62726563 -1.08570312 5.62953125 -1.09765625 4.6015625 C-1 2 -1 2 0 0 Z " fill="#DDA5C2" transform="translate(121,212)"/>
<path d="M0 0 C2.5 1.0625 2.5 1.0625 4 2 C4 2.66 4 3.32 4 4 C4.66 4 5.32 4 6 4 C6.66 6.31 7.32 8.62 8 11 C5.8125 11.6875 5.8125 11.6875 3 12 C0.5 10.6875 0.5 10.6875 -2 9 C-2.9075 8.67 -3.815 8.34 -4.75 8 C-5.86375 7.505 -5.86375 7.505 -7 7 C-7.33 6.01 -7.66 5.02 -8 4 C-8.66 4 -9.32 4 -10 4 C-10 2.68 -10 1.36 -10 0 C-6.76708301 -1.61645849 -3.43029955 -0.67792481 0 0 Z " fill="#FBC3D0" transform="translate(468,268)"/>
<path d="M0 0 C6.32597793 -0.35807422 6.32597793 -0.35807422 9 1.0625 C10.63378851 4.22796524 9.85267564 6.65020286 9 10 C5.54754176 12.30163882 4.05261287 12.34490322 0 12 C-2 10 -2 10 -2.1953125 8.0546875 C-2.13020833 6.03645833 -2.06510417 4.01822917 -2 2 C-1.34 2 -0.68 2 0 2 C0 1.34 0 0.68 0 0 Z " fill="#8F85B2" transform="translate(307,156)"/>
<path d="M0 0 C0 0.33 0 0.66 0 1 C-2.97851562 1.34179688 -2.97851562 1.34179688 -5.95703125 1.68359375 C-8.19396393 1.97170735 -8.19396393 1.97170735 -11 3 C-11 3.66 -11 4.32 -11 5 C-8.03 5 -5.06 5 -2 5 C-2 5.33 -2 5.66 -2 6 C-5.49992696 6.79706768 -8.7142231 7.11863027 -12.30078125 7.09765625 C-13.27724609 7.09443359 -14.25371094 7.09121094 -15.25976562 7.08789062 C-16.26716797 7.07951172 -17.27457031 7.07113281 -18.3125 7.0625 C-19.33923828 7.05798828 -20.36597656 7.05347656 -21.42382812 7.04882812 C-23.94927882 7.03708184 -26.47460905 7.02065565 -29 7 C-28.67 5.35 -28.34 3.7 -28 2 C-25.02141273 1.66062892 -22.04230315 1.32837741 -19.0625 1 C-18.23169922 0.90460938 -17.40089844 0.80921875 -16.54492188 0.7109375 C-10.99415957 0.10618519 -5.583649 -0.09014973 0 0 Z " fill="#FBC5D2" transform="translate(513,249)"/>
<path d="M0 0 C0 0.66 0 1.32 0 2 C-0.99 2.66 -1.98 3.32 -3 4 C-4.91119537 5.91119537 -4.3995013 9.2588537 -4.5625 11.8125 C-4.60568359 12.4823291 -4.64886719 13.1521582 -4.69335938 13.84228516 C-5.01151739 19.16890691 -5.0513292 24.4689437 -4.9375 29.8046875 C-5 32 -5 32 -6 33 C-6.23192865 34.51469448 -6.41215238 36.03754562 -6.5625 37.5625 C-6.64628906 38.38878906 -6.73007812 39.21507812 -6.81640625 40.06640625 C-6.87699219 40.70449219 -6.93757813 41.34257812 -7 42 C-6.34 42 -5.68 42 -5 42 C-4.67 45.3 -4.34 48.6 -4 52 C-4.99 52 -5.98 52 -7 52 C-7.97973654 45.46842309 -8.15383533 39.09909687 -8.125 32.5 C-8.1237915 31.4478833 -8.12258301 30.3957666 -8.12133789 29.31176758 C-8.08418683 21.82382874 -7.75249194 14.40907148 -7.12109375 6.94921875 C-6.82280946 3.94010277 -6.82280946 3.94010277 -8 1 C-2.25 0 -2.25 0 0 0 Z " fill="#E7E1F2" transform="translate(372,220)"/>
<path d="M0 0 C1.32 0 2.64 0 4 0 C5.60725635 3.21451269 5.05748185 6.43612536 5 10 C2.36 10 -0.28 10 -3 10 C-3 9.67 -3 9.34 -3 9 C-18.18 8.67 -33.36 8.34 -49 8 C-49 7.67 -49 7.34 -49 7 C-33.16 7 -17.32 7 -1 7 C-0.67 4.69 -0.34 2.38 0 0 Z " fill="#DDD7EE" transform="translate(335,212)"/>
<path d="M0 0 C1.23556641 0.01740234 1.23556641 0.01740234 2.49609375 0.03515625 C3.32238281 0.04417969 4.14867187 0.05320312 5 0.0625 C5.63808594 0.07410156 6.27617187 0.08570313 6.93359375 0.09765625 C6.93359375 0.75765625 6.93359375 1.41765625 6.93359375 2.09765625 C6.27359375 2.09765625 5.61359375 2.09765625 4.93359375 2.09765625 C4.93359375 2.75765625 4.93359375 3.41765625 4.93359375 4.09765625 C0.29064578 7.07390495 -2.59792375 7.27374398 -7.8203125 6.32421875 C-10.09141519 5.98051508 -10.09141519 5.98051508 -12.38671875 6.5859375 C-15.82590775 7.24269225 -18.89527272 6.95317215 -22.37890625 6.66015625 C-23.63316406 6.55832031 -24.88742188 6.45648438 -26.1796875 6.3515625 C-27.13230469 6.26777344 -28.08492187 6.18398438 -29.06640625 6.09765625 C-29.06640625 4.77765625 -29.06640625 3.45765625 -29.06640625 2.09765625 C-28.40640625 2.09765625 -27.74640625 2.09765625 -27.06640625 2.09765625 C-27.06640625 2.75765625 -27.06640625 3.41765625 -27.06640625 4.09765625 C-18.60411524 4.42688083 -10.97277399 4.42212025 -3.06640625 1.09765625 C-2.06640625 0.09765625 -2.06640625 0.09765625 0 0 Z " fill="#DBACC8" transform="translate(157.06640625,261.90234375)"/>
<path d="M0 0 C5.34352851 1.43798777 10.56451324 1.28129767 16.0625 1.1875 C17.07570312 1.17847656 18.08890625 1.16945312 19.1328125 1.16015625 C21.60962801 1.13679007 24.08593379 1.10403168 26.5625 1.0625 C24.5625 4.0625 24.5625 4.0625 21.3125 4.75 C11.73901206 5.60291074 2.08482562 5.29118718 -7.4375 4.0625 C-7.4375 3.0725 -7.4375 2.0825 -7.4375 1.0625 C-4.55385714 -1.10023214 -3.54551597 -0.9669589 0 0 Z " fill="#D8A3C0" transform="translate(127.4375,246.9375)"/>
<path d="M0 0 C5.94 0 11.88 0 18 0 C18.33 1.65 18.66 3.3 19 5 C17.68 5 16.36 5 15 5 C14.67 5.99 14.34 6.98 14 8 C13.01 8 12.02 8 11 8 C11 7.01 11 6.02 11 5 C10.071875 4.7834375 10.071875 4.7834375 9.125 4.5625 C7 4 7 4 5 3 C5 3.66 5 4.32 5 5 C3.35 5.33 1.7 5.66 0 6 C0 4.02 0 2.04 0 0 Z " fill="#D0CCE0" transform="translate(297,232)"/>
<path d="M0 0 C0.78375 0.18626953 1.5675 0.37253906 2.375 0.56445312 C4.29209281 1.02034715 6.2086065 1.47867527 8.125 1.9375 C8.125 2.2675 8.125 2.5975 8.125 2.9375 C-0.125 2.9375 -8.375 2.9375 -16.875 2.9375 C-15.555 1.9475 -14.235 0.9575 -12.875 -0.0625 C-14.525 0.2675 -16.175 0.5975 -17.875 0.9375 C-18.205 0.2775 -18.535 -0.3825 -18.875 -1.0625 C-13.25623716 -4.73630647 -6.09323138 -1.46134278 0 0 Z " fill="#2B1E2D" transform="translate(466.875,295.0625)"/>
<path d="M0 0 C0 0.99 0 1.98 0 3 C-3.61719318 4.63505164 -6.56035906 5.28135282 -10.51953125 5.4140625 C-12.0519043 5.47207031 -12.0519043 5.47207031 -13.61523438 5.53125 C-14.67033203 5.5621875 -15.72542969 5.593125 -16.8125 5.625 C-17.88693359 5.66367187 -18.96136719 5.70234375 -20.06835938 5.7421875 C-22.71207088 5.83618613 -25.3557805 5.92184573 -28 6 C-23.53279144 3.60512235 -18.89081575 2.53869738 -14 1.3125 C-12.64648438 0.95575195 -12.64648438 0.95575195 -11.265625 0.59179688 C-10.39421875 0.37201172 -9.5228125 0.15222656 -8.625 -0.07421875 C-7.83351562 -0.27619873 -7.04203125 -0.47817871 -6.2265625 -0.6862793 C-3.83803616 -1.02282056 -2.27584485 -0.74205272 0 0 Z " fill="#2D1D30" transform="translate(176,292)"/>
<path d="M0 0 C1.32 0.66 2.64 1.32 4 2 C3.01 2.33 2.02 2.66 1 3 C-0.02281518 5.09719872 -0.02281518 5.09719872 -0.6875 7.5625 C-0.93886719 8.38878906 -1.19023438 9.21507812 -1.44921875 10.06640625 C-1.63097656 10.70449219 -1.81273438 11.34257812 -2 12 C-1.67 12.33 -1.34 12.66 -1 13 C-0.95936168 14.66617115 -0.957279 16.33388095 -1 18 C-1.66 18 -2.32 18 -3 18 C-3.66 19.32 -4.32 20.64 -5 22 C-5.66 22 -6.32 22 -7 22 C-6.82501768 14.66664994 -5.45198252 5.45198252 0 0 Z " fill="#D7A3C1" transform="translate(72,194)"/>
<path d="M0 0 C0.99 0.33 1.98 0.66 3 1 C2.83886719 1.56460938 2.67773438 2.12921875 2.51171875 2.7109375 C1.98244421 5.07853202 1.83276157 7.20171575 1.8125 9.625 C1.79832031 10.40101563 1.78414063 11.17703125 1.76953125 11.9765625 C1.81334164 14.22836993 1.81334164 14.22836993 4 16 C4.99 15.34 5.98 14.68 7 14 C7.37065637 21.53667954 7.37065637 21.53667954 5.5 23.875 C4.7575 24.431875 4.7575 24.431875 4 25 C4 25.66 4 26.32 4 27 C3.34 27 2.68 27 2 27 C-0.641513 18.08489362 -0.17875809 9.20604186 0 0 Z " fill="#CC9ABB" transform="translate(64,218)"/>
<path d="M0 0 C0.66 0 1.32 0 2 0 C1.67 4.62 1.34 9.24 1 14 C-0.65 14.66 -2.3 15.32 -4 16 C-4 16.66 -4 17.32 -4 18 C-5.6396721 19.36639342 -7.31110128 20.6949419 -9 22 C-9.639375 22.721875 -10.27875 23.44375 -10.9375 24.1875 C-13.55091789 26.48413997 -15.58920124 26.68992739 -19 27 C-16.85139286 24.7376037 -14.60371612 22.92970242 -12.0625 21.125 C-4.29632229 15.35380372 -2.15543597 9.083623 0 0 Z " fill="#E8B3CA" transform="translate(110,146)"/>
<path d="M0 0 C4.02501235 4.02501235 3.12564579 11.647335 3.23046875 17.1171875 C3 19 3 19 1 21 C-2.13902852 14.19877155 -2.33452052 8.43378943 -2 1 C-1.34 0.67 -0.68 0.34 0 0 Z " fill="#F8C6D3" transform="translate(455,214)"/>
<path d="M0 0 C0.33 0 0.66 0 1 0 C1.05845252 4.49994472 1.09374855 8.99979063 1.125 13.5 C1.14175781 14.7684375 1.15851562 16.036875 1.17578125 17.34375 C1.21032335 23.97583392 0.90412746 29.65290845 -1 36 C-1.25488028 37.82744355 -1.47177009 39.66124105 -1.625 41.5 C-1.69976563 42.3559375 -1.77453125 43.211875 -1.8515625 44.09375 C-1.90054688 44.7228125 -1.94953125 45.351875 -2 46 C-2.66 46 -3.32 46 -4 46 C-4.33 46.99 -4.66 47.98 -5 49 C-6.7915546 45.4168908 -4.5222093 40.94955062 -3.47070312 37.20507812 C-2.24999207 32.64974176 -1.79596735 28.71748209 -2 24 C-1.34 24 -0.68 24 0 24 C0 16.08 0 8.16 0 0 Z " fill="#F6CFD9" transform="translate(558,204)"/>
<path d="M0 0 C0.99 1.485 0.99 1.485 2 3 C2.66 2.67 3.32 2.34 4 2 C4.66 3.98 5.32 5.96 6 8 C6.66 8 7.32 8 8 8 C9.68816933 9.64488294 11.35353315 11.31337542 13 13 C13.99 13.66 14.98 14.32 16 15 C15.34 15 14.68 15 14 15 C14 15.99 14 16.98 14 18 C8.62285136 16.20761712 5.95398667 13.87128154 3.375 8.8125 C2.92125 7.884375 2.4675 6.95625 2 6 C1.34 5.67 0.68 5.34 0 5 C0 3.35 0 1.7 0 0 Z " fill="#FDECEF" transform="translate(514,136)"/>
<path d="M0 0 C0.680625 1.0209375 0.680625 1.0209375 1.375 2.0625 C5.6893283 6.89043881 11.45271416 11.84816268 18 13 C18 13.66 18 14.32 18 15 C11.50307545 14.46963881 7.14232189 12.63549578 2.0625 8.375 C1 7 1 7 1 5 C0.34 5 -0.32 5 -1 5 C-1.33 3.68 -1.66 2.36 -2 1 C-1.34 0.67 -0.68 0.34 0 0 Z " fill="#E1B0CA" transform="translate(130,207)"/>
<path d="M0 0 C0.66 0.33 1.32 0.66 2 1 C-0.55571918 3.55571918 -3.10535034 6.09816736 -5.75 8.5625 C-8.1201557 10.72917769 -8.1201557 10.72917769 -8.5 13.125 C-9 15 -9 15 -11.5625 16.75 C-12.366875 17.1625 -13.17125 17.575 -14 18 C-14 14.5580272 -13.44055168 12.51271101 -11.1875 9.890625 C-9.74983755 8.4837696 -8.29176876 7.0974155 -6.8125 5.734375 C-4.91771977 4.11630797 -4.91771977 4.11630797 -4 2 C-2.0625 0.8125 -2.0625 0.8125 0 0 Z " fill="#DCABC7" transform="translate(88,175)"/>
<path d="M0 0 C0 4.29 0 8.58 0 13 C-0.66 13 -1.32 13 -2 13 C-2 12.34 -2 11.68 -2 11 C-2.66 11 -3.32 11 -4 11 C-4 10.34 -4 9.68 -4 9 C-4.66 9 -5.32 9 -6 9 C-5.6875 5.625 -5.6875 5.625 -5 2 C-2 0 -2 0 0 0 Z " fill="#EAB3CA" transform="translate(175,187)"/>
<path d="M0 0 C0 0.66 0 1.32 0 2 C0.66 2 1.32 2 2 2 C2.33 1.34 2.66 0.68 3 0 C3 1.32 3 2.64 3 4 C4.4166747 5.7511573 4.4166747 5.7511573 6 7 C0.79044057 6.45162532 -4.06836739 5.81162014 -9 4 C-9.33 3.01 -9.66 2.02 -10 1 C-9.05125 1.020625 -8.1025 1.04125 -7.125 1.0625 C-4.31337204 1.00626744 -2.6726858 0 0 0 Z " fill="#CE9CC0" transform="translate(130,296)"/>
<path d="M0 0 C0.99 0.33 1.98 0.66 3 1 C1.515 2.485 1.515 2.485 0 4 C0.66 4.66 1.32 5.32 2 6 C-1.6441774 8.4294516 -3.71241272 8.16179575 -8 8 C-8 8.66 -8 9.32 -8 10 C-9.32 9.67 -10.64 9.34 -12 9 C-12 8.34 -12 7.68 -12 7 C-10.02 6.67 -8.04 6.34 -6 6 C-6 5.34 -6 4.68 -6 4 C-5.34 4 -4.68 4 -4 4 C-4 3.34 -4 2.68 -4 2 C-2.68 2 -1.36 2 0 2 C0 1.34 0 0.68 0 0 Z " fill="#F9CBD4" transform="translate(508,216)"/>
<path d="M0 0 C0 0.66 0 1.32 0 2 C2.475 2.99 2.475 2.99 5 4 C4.4225 4.268125 3.845 4.53625 3.25 4.8125 C-0.76860341 6.93342958 -3.2333727 8.73065069 -5 13 C-4.67 10.69 -4.34 8.38 -4 6 C-4.66 6 -5.32 6 -6 6 C-6.33 6.66 -6.66 7.32 -7 8 C-7.33 7.34 -7.66 6.68 -8 6 C-3.38461538 0 -3.38461538 0 0 0 Z " fill="#40323F" transform="translate(185,113)"/>
<path d="M0 0 C2.31 0 4.62 0 7 0 C5.68 1.32 4.36 2.64 3 4 C3.33 4.66 3.66 5.32 4 6 C5.32 6 6.64 6 8 6 C8 6.66 8 7.32 8 8 C5.6739143 8.38063221 3.33944736 8.71269945 1 9 C0.67 8.67 0.34 8.34 0 8 C-0.66 8.66 -1.32 9.32 -2 10 C-2 7.36 -2 4.72 -2 2 C-1.34 2 -0.68 2 0 2 C0 1.34 0 0.68 0 0 Z " fill="#8D81BE" transform="translate(307,156)"/>
<path d="M0 0 C3.93743833 -0.05797565 7.87476719 -0.09358789 11.8125 -0.125 C12.93205078 -0.14175781 14.05160156 -0.15851563 15.20507812 -0.17578125 C16.27822266 -0.18222656 17.35136719 -0.18867187 18.45703125 -0.1953125 C19.9416687 -0.21102295 19.9416687 -0.21102295 21.45629883 -0.22705078 C24 0 24 0 27 2 C26.34 2 25.68 2 25 2 C25 2.66 25 3.32 25 4 C22.36 4.33 19.72 4.66 17 5 C17 4.01 17 3.02 17 2 C11.39 1.67 5.78 1.34 0 1 C0 0.67 0 0.34 0 0 Z " fill="#F8C6D1" transform="translate(312,74)"/>
<path d="M0 0 C2.24459071 1.92393489 3.12149611 3.28349092 4.3125 6.0625 C5.76976165 9.27804162 5.76976165 9.27804162 9.1875 10.375 C10.115625 10.58125 11.04375 10.7875 12 11 C12 12.65 12 14.3 12 16 C9.52815223 15.61688984 8.30599459 15.34586924 6.62109375 13.44140625 C6.23050781 12.82136719 5.83992188 12.20132812 5.4375 11.5625 C3.69856701 8.83152 2.82103981 7.8806932 0 6 C-0.75 4 -0.75 4 -1 2 C-0.67 1.34 -0.34 0.68 0 0 Z " fill="#C998BF" transform="translate(76,262)"/>
<path d="M0 0 C1.485 0.99 1.485 0.99 3 2 C3.34057617 5.07275391 3.34057617 5.07275391 3.29296875 8.9765625 C3.28872391 9.66181 3.28447906 10.3470575 3.28010559 11.05307007 C3.26329753 13.24411129 3.22564405 15.43423632 3.1875 17.625 C3.17245579 19.10936173 3.15876693 20.59373785 3.14648438 22.078125 C3.1133879 25.71904833 3.06159207 29.35943478 3 33 C2.01 33 1.02 33 0 33 C0 32.34 0 31.68 0 31 C0.66 31 1.32 31 2 31 C1.86010966 27.1455938 1.71201994 23.29154371 1.5625 19.4375 C1.52318359 18.35146484 1.48386719 17.26542969 1.44335938 16.14648438 C1.22798645 10.69589254 0.91840778 5.37924559 0 0 Z " fill="#DAD7EF" transform="translate(440,249)"/>
<path d="M0 0 C3.63 0 7.26 0 11 0 C11 1.32 11 2.64 11 4 C8.03 3.505 8.03 3.505 5 3 C5 3.66 5 4.32 5 5 C3.35 5.33 1.7 5.66 0 6 C0 4.02 0 2.04 0 0 Z " fill="#BCB5D3" transform="translate(297,232)"/>
<path d="M0 0 C0 0.99 0 1.98 0 3 C-2.97 3.66 -5.94 4.32 -9 5 C-9.33 3.35 -9.66 1.7 -10 0 C-6.7169902 -1.6415049 -3.57454967 -0.51888624 0 0 Z " fill="#EFB3C7" transform="translate(172,176)"/>
<path d="M0 0 C0.33 0.66 0.66 1.32 1 2 C-2.39452826 7.06771772 -5.0553027 10.83829189 -11 13 C-11.66 13 -12.32 13 -13 13 C-13 12.34 -13 11.68 -13 11 C-11.171875 9.4140625 -11.171875 9.4140625 -8.75 7.625 C-5.576007 5.27043656 -2.73926438 2.85235328 0 0 Z " fill="#FBD2DC" transform="translate(475,137)"/>
<path d="M0 0 C0 3 0 3 -2.5 5.6875 C-3.325 6.450625 -4.15 7.21375 -5 8 C-8.875 6.25 -8.875 6.25 -10 4 C-7.03 4.495 -7.03 4.495 -4 5 C-4 4.01 -4 3.02 -4 2 C-4.66 2 -5.32 2 -6 2 C-6 1.34 -6 0.68 -6 0 C-3.50907189 -1.24546405 -2.58919267 -0.7767578 0 0 Z " fill="#EC9AAD" transform="translate(371,185)"/>
<path d="M0 0 C2.97 0.33 5.94 0.66 9 1 C9 2.65 9 4.3 9 6 C5.875 5.47916667 2.75 4.95833333 -0.375 4.4375 C-1.674375 4.2209375 -1.674375 4.2209375 -3 4 C-2.34 3.67 -1.68 3.34 -1 3 C-0.67 2.01 -0.34 1.02 0 0 Z " fill="#E6AEBB" transform="translate(453,288)"/>
<path d="M0 0 C-0.99 0.66 -1.98 1.32 -3 2 C-2.67 2.66 -2.34 3.32 -2 4 C-8.93 3.505 -8.93 3.505 -16 3 C-13.13771795 1.56885897 -11.00359672 0.59273118 -8 -0.1875 C-7.34 -0.36667969 -6.68 -0.54585938 -6 -0.73046875 C-3.73459024 -1.03576811 -2.164908 -0.68136613 0 0 Z " fill="#F9DFEB" transform="translate(504,300)"/>
<path d="M0 0 C0.33 1.32 0.66 2.64 1 4 C0.01 4.33 -0.98 4.66 -2 5 C-2.33 4.67 -2.66 4.34 -3 4 C-4.68183948 3.76712992 -6.3712416 3.58735834 -8.0625 3.4375 C-9.44115234 3.31181641 -9.44115234 3.31181641 -10.84765625 3.18359375 C-11.91306641 3.09271484 -11.91306641 3.09271484 -13 3 C-9.39091002 -0.60908998 -4.88215348 -0.11353845 0 0 Z " fill="#E6E0F4" transform="translate(319,167)"/>
<path d="M0 0 C2 1 2 1 2 1 Z M-2 1 C-1.34 1.33 -0.68 1.66 0 2 C-4.625 6 -4.625 6 -8 6 C-8 6.66 -8 7.32 -8 8 C-11.75 9.125 -11.75 9.125 -14 8 C-14 7.34 -14 6.68 -14 6 C-10.7 5.34 -7.4 4.68 -4 4 C-4 3.34 -4 2.68 -4 2 C-3.34 1.67 -2.68 1.34 -2 1 Z " fill="#F4CDD5" transform="translate(474,151)"/>
<path d="M0 0 C-0.33 1.32 -0.66 2.64 -1 4 C-0.34 4.33 0.32 4.66 1 5 C-0.25 6.5625 -0.25 6.5625 -2 8 C-4.1875 7.6875 -4.1875 7.6875 -6 7 C-5.37162381 3.35541809 -4.14650034 0 0 0 Z " fill="#FCE6E7" transform="translate(359,200)"/>
<path d="M0 0 C0.99 0.33 1.98 0.66 3 1 C3 3.64 3 6.28 3 9 C0.69 9 -1.62 9 -4 9 C-4 8.34 -4 7.68 -4 7 C-2.68 6.67 -1.36 6.34 0 6 C0 4.02 0 2.04 0 0 Z " fill="#C89AC3" transform="translate(144,296)"/>
<path d="M0 0 C0 3 0 3 -2.3125 5.625 C-5 8 -5 8 -8 9 C-8.99 10.485 -8.99 10.485 -10 12 C-11.32 11.67 -12.64 11.34 -14 11 C-13.34 11 -12.68 11 -12 11 C-12 10.34 -12 9.68 -12 9 C-9.8828125 7.34375 -9.8828125 7.34375 -7.125 5.5 C-3.37124832 2.98303319 -3.37124832 2.98303319 0 0 Z " fill="#FCDDE8" transform="translate(536,279)"/>
<path d="M0 0 C2.61537297 3.95495425 2.44264274 8.16827373 2.625 12.75 C2.66367187 13.54277344 2.70234375 14.33554688 2.7421875 15.15234375 C2.836108 17.10119416 2.91912822 19.05056451 3 21 C2.01 21.33 1.02 21.66 0 22 C0.01160156 20.90300781 0.02320313 19.80601562 0.03515625 18.67578125 C0.04453964 17.22135588 0.05363925 15.76692865 0.0625 14.3125 C0.07087891 13.59126953 0.07925781 12.87003906 0.08789062 12.12695312 C0.10551942 8.26624636 -0.20043385 4.76732521 -1 1 C-0.67 0.67 -0.34 0.34 0 0 Z " fill="#F4D3E0" transform="translate(388,184)"/>
<path d="M0 0 C1.67542976 0.28604898 3.34385343 0.61781233 5 1 C5 3.97 5 6.94 5 10 C1.91910327 7.22719294 0.31224548 4.93673644 -1 1 C-0.67 0.67 -0.34 0.34 0 0 Z " fill="#41313F" transform="translate(442,120)"/>
<path d="M0 0 C0.66 0 1.32 0 2 0 C1.67 1.98 1.34 3.96 1 6 C0.34 6 -0.32 6 -1 6 C-1.226875 6.721875 -1.45375 7.44375 -1.6875 8.1875 C-3.24831013 11.53209313 -5.3031287 13.51603959 -8 16 C-6.68448876 11.39571066 -4.90803514 7.81679612 -2 4 C-1.34 4 -0.68 4 0 4 C0 2.68 0 1.36 0 0 Z " fill="#FBD7E3" transform="translate(548,260)"/>
<path d="M0 0 C0 3.18612044 -0.52515518 4.29309788 -1.9375 7.0625 C-4.23159496 11.9911563 -4.77499171 16.61105154 -5 22 C-5.33 22 -5.66 22 -6 22 C-6.63863718 13.612565 -5.99921551 7.90055649 -1 1 C-0.67 0.67 -0.34 0.34 0 0 Z " fill="#E09CA9" transform="translate(346,180)"/>
<path d="M0 0 C0.33 0.66 0.66 1.32 1 2 C3.11327425 2.90725434 3.11327425 2.90725434 5.5625 3.625 C6.38878906 3.88539063 7.21507812 4.14578125 8.06640625 4.4140625 C9.02353516 4.70410156 9.02353516 4.70410156 10 5 C9.67 5.66 9.34 6.32 9 7 C5.44219804 6.39009109 2.3171411 5.4216319 -1 4 C-0.67 2.68 -0.34 1.36 0 0 Z " fill="#EDBECE" transform="translate(153,157)"/>
<path d="M0 0 C2.64 0 5.28 0 8 0 C7.01 0.495 7.01 0.495 6 1 C6 1.66 6 2.32 6 3 C0.25 6 0.25 6 -2 6 C-2 5.34 -2 4.68 -2 4 C-1.34 3.67 -0.68 3.34 0 3 C0 2.01 0 1.02 0 0 Z " fill="#D4A2BE" transform="translate(156,263)"/>
<path d="M0 0 C2.875 0.6875 2.875 0.6875 6 2 C7.375 4.625 7.375 4.625 8 7 C6.35 7 4.7 7 3 7 C1.79371992 4.66785852 0.8345262 2.50357861 0 0 Z " fill="#37212E" transform="translate(438,114)"/>
<path d="M0 0 C2.64 0.66 5.28 1.32 8 2 C8 2.66 8 3.32 8 4 C5.36 4.33 2.72 4.66 0 5 C0 3.35 0 1.7 0 0 Z " fill="#CE9ABA" transform="translate(152,291)"/>
<path d="M0 0 C0.33 0 0.66 0 1 0 C1.36272727 6.40818182 1.36272727 6.40818182 -0.1875 8.9375 C-2.54570865 10.31989817 -4.30884194 10.07487674 -7 10 C-6.57847656 9.44570312 -6.15695312 8.89140625 -5.72265625 8.3203125 C-5.17480469 7.59585938 -4.62695312 6.87140625 -4.0625 6.125 C-3.51722656 5.40570313 -2.97195313 4.68640625 -2.41015625 3.9453125 C-0.96035376 2.05642921 -0.96035376 2.05642921 0 0 Z " fill="#EBD3E7" transform="translate(387,206)"/>
<path d="M0 0 C0.66 0.33 1.32 0.66 2 1 C2 3.31 2 5.62 2 8 C2.99 8.33 3.98 8.66 5 9 C4.34 9.66 3.68 10.32 3 11 C1.99403703 10.0479279 0.99538437 9.08812654 0 8.125 C-0.556875 7.59132812 -1.11375 7.05765625 -1.6875 6.5078125 C-3 5 -3 5 -3 3 C-1.5 1.375 -1.5 1.375 0 0 Z " fill="#E5A0B1" transform="translate(371,192)"/>
<path d="M0 0 C1.98 0 3.96 0 6 0 C6.33 1.98 6.66 3.96 7 6 C6.38125 5.79375 5.7625 5.5875 5.125 5.375 C4.42375 5.25125 3.7225 5.1275 3 5 C2.34 5.66 1.68 6.32 1 7 C0.67 4.69 0.34 2.38 0 0 Z " fill="#877CB7" transform="translate(309,157)"/>
<path d="M0 0 C2 2 2 2 2.875 5.0625 C3.24625 6.031875 3.6175 7.00125 4 8 C6.03243548 8.96877057 6.03243548 8.96877057 8 9 C7.67 10.32 7.34 11.64 7 13 C5.1875 12.4375 5.1875 12.4375 3 11 C0.93061944 7.00905178 0 4.52370909 0 0 Z " fill="#E4BCCB" transform="translate(85,128)"/>
<path d="M0 0 C0.99 0.33 1.98 0.66 3 1 C2.34 1 1.68 1 1 1 C1.66 2.32 2.32 3.64 3 5 C0.06279492 6.52299523 -2.9168649 7.80100302 -6 9 C-4.68 6.69 -3.36 4.38 -2 2 C-1.34 2 -0.68 2 0 2 C0 1.34 0 0.68 0 0 Z " fill="#F8E4E6" transform="translate(367,194)"/>
<path d="M0 0 C2.64 0.66 5.28 1.32 8 2 C8 2.99 8 3.98 8 5 C7.67 4.34 7.34 3.68 7 3 C6.01 3 5.02 3 4 3 C4.33 3.66 4.66 4.32 5 5 C4.34 5.66 3.68 6.32 3 7 C1.68 6.34 0.36 5.68 -1 5 C-0.01 4.67 0.98 4.34 2 4 C1.34 3.67 0.68 3.34 0 3 C0 2.01 0 1.02 0 0 Z " fill="#594455" transform="translate(435,112)"/>
<path d="M0 0 C0 4.05480631 -1.54870092 5.84832975 -4 9 C-4.99 9 -5.98 9 -7 9 C-6.67 7.68 -6.34 6.36 -6 5 C-5.34 5 -4.68 5 -4 5 C-3.71125 4.360625 -3.4225 3.72125 -3.125 3.0625 C-2 1 -2 1 0 0 Z " fill="#F8C6D3" transform="translate(174,67)"/>
<path d="M0 0 C0.99 0.33 1.98 0.66 3 1 C2.67 2.98 2.34 4.96 2 7 C1.01 7 0.02 7 -1 7 C-1.625 4.625 -1.625 4.625 -2 2 C-1.34 1.34 -0.68 0.68 0 0 Z " fill="#8F7BAA" transform="translate(475,297)"/>
<path d="M0 0 C1.32 0 2.64 0 4 0 C4.33 0.66 4.66 1.32 5 2 C5.66 1.67 6.32 1.34 7 1 C7 2.32 7 3.64 7 5 C7.66 5.33 8.32 5.66 9 6 C5.21213403 5.4739075 2.82847776 4.61896089 0 2 C0 1.34 0 0.68 0 0 Z " fill="#CBA0C3" transform="translate(89,280)"/>
<path d="M0 0 C3.47000311 1.1566677 3.84701459 1.85726716 5.6875 4.875 C6.12449219 5.57367188 6.56148437 6.27234375 7.01171875 6.9921875 C8 9 8 9 8 12 C7.34 12 6.68 12 6 12 C3 6.25 3 6.25 3 4 C2.01 3.67 1.02 3.34 0 3 C0 2.01 0 1.02 0 0 Z " fill="#F7DCE1" transform="translate(544,169)"/>
<path d="M0 0 C0 0.33 0 0.66 0 1 C-3.96 1.66 -7.92 2.32 -12 3 C-12 2.01 -12 1.02 -12 0 C-7.89962722 -3.07527959 -4.53236941 -1.35971082 0 0 Z " fill="#DEABCA" transform="translate(132,248)"/>
<path d="M0 0 C2.8203125 0.4609375 2.8203125 0.4609375 6.125 1.375 C7.22070312 1.67148438 8.31640625 1.96796875 9.4453125 2.2734375 C10.28835937 2.51320312 11.13140625 2.75296875 12 3 C12 3.33 12 3.66 12 4 C7.71 4 3.42 4 -1 4 C-1.33 3.34 -1.66 2.68 -2 2 C-1.34 1.34 -0.68 0.68 0 0 Z " fill="#E0B1CA" transform="translate(128,228)"/>
<path d="M0 0 C0.99 0 1.98 0 3 0 C3 5.28 3 10.56 3 16 C2.67 16 2.34 16 2 16 C1.93941406 15.18015625 1.87882813 14.3603125 1.81640625 13.515625 C1.73261719 12.43796875 1.64882812 11.3603125 1.5625 10.25 C1.48128906 9.18265625 1.40007812 8.1153125 1.31640625 7.015625 C1.05909227 4.56320038 0.68187782 2.36078709 0 0 Z " fill="#F5D1E6" transform="translate(172,200)"/>
<path d="M0 0 C2.31 0 4.62 0 7 0 C4.6875 2.0625 4.6875 2.0625 2 4 C1.01 3.67 0.02 3.34 -1 3 C-1 5.31 -1 7.62 -1 10 C-1.33 10 -1.66 10 -2 10 C-2 7.36 -2 4.72 -2 2 C-1.34 2 -0.68 2 0 2 C0 1.34 0 0.68 0 0 Z " fill="#9B93C0" transform="translate(307,156)"/>
<path d="M0 0 C1.32 0 2.64 0 4 0 C4 1.65 4 3.3 4 5 C3.01 5 2.02 5 1 5 C0.67 5.66 0.34 6.32 0 7 C0 4.69 0 2.38 0 0 Z " fill="#B9B2D4" transform="translate(318,232)"/>
<path d="M0 0 C1.65 0 3.3 0 5 0 C3.6875 2.5 3.6875 2.5 2 5 C1.01 5 0.02 5 -1 5 C-1.33 5.66 -1.66 6.32 -2 7 C-1.42415568 4.61435923 -0.77772405 2.33317216 0 0 Z " fill="#ECE6F9" transform="translate(299,171)"/>
<path d="M0 0 C-1.65 1.65 -3.3 3.3 -5 5 C-5.66 4.67 -6.32 4.34 -7 4 C-6.625 2.0625 -6.625 2.0625 -6 0 C-3.50907189 -1.24546405 -2.58919267 -0.7767578 0 0 Z " fill="#EFCED8" transform="translate(380,72)"/>
<path d="M0 0 C0 0.33 0 0.66 0 1 C-1.15628906 1.19916016 -1.15628906 1.19916016 -2.3359375 1.40234375 C-3.33882812 1.57894531 -4.34171875 1.75554688 -5.375 1.9375 C-6.87160156 2.19853516 -6.87160156 2.19853516 -8.3984375 2.46484375 C-10.96909656 2.87712062 -10.96909656 2.87712062 -13 4 C-13.99 3.34 -14.98 2.68 -16 2 C-10.60539047 -0.27141454 -5.73842251 -0.20413361 0 0 Z " fill="#F3CCD5" transform="translate(176,23)"/>
<path d="M0 0 C3.3 0.66 6.6 1.32 10 2 C10 2.33 10 2.66 10 3 C6.37 3 2.74 3 -1 3 C-0.67 2.01 -0.34 1.02 0 0 Z " fill="#352134" transform="translate(465,295)"/>
<path d="M0 0 C1.33333333 0.66666667 2.66666667 1.33333333 4 2 C5.0828125 2.433125 5.0828125 2.433125 6.1875 2.875 C8 4 8 4 8.75 6.125 C8.87375 7.053125 8.87375 7.053125 9 8 C1.28571429 4 1.28571429 4 0 0 Z " fill="#DDAFD0" transform="translate(136,278)"/>
<path d="M0 0 C0.99 0 1.98 0 3 0 C2.45773019 3.79588866 0.79872437 5.47211993 -2 8 C-1.125 1.125 -1.125 1.125 0 0 Z " fill="#FBECEB" transform="translate(345,176)"/>
<path d="M0 0 C1.66611905 -0.042721 3.33382885 -0.04063832 5 0 C5.33 0.33 5.66 0.66 6 1 C7.68183948 1.23287008 9.3712416 1.41264166 11.0625 1.5625 C11.98160156 1.64628906 12.90070312 1.73007813 13.84765625 1.81640625 C14.91306641 1.90728516 14.91306641 1.90728516 16 2 C16 2.33 16 2.66 16 3 C14.08404032 3.08133791 12.16708068 3.13934367 10.25 3.1875 C8.64898438 3.23970703 8.64898438 3.23970703 7.015625 3.29296875 C3.69972145 2.97082786 2.40983327 2.22851086 0 0 Z " fill="#F6DCE1" transform="translate(530,150)"/>
<path d="M0 0 C1.485 0.99 1.485 0.99 3 2 C2.67 5.3 2.34 8.6 2 12 C1.67 12 1.34 12 1 12 C0.67 8.04 0.34 4.08 0 0 Z " fill="#EFC3D2" transform="translate(101,112)"/>
<path d="M0 0 C0 0.66 0 1.32 0 2 C2.475 2.99 2.475 2.99 5 4 C3.02 4.99 3.02 4.99 1 6 C0.67 5.34 0.34 4.68 0 4 C-2.52733235 3.34444881 -2.52733235 3.34444881 -5 3 C-2.25 0 -2.25 0 0 0 Z " fill="#4A3B47" transform="translate(185,113)"/>
<path d="M0 0 C0.33 0.66 0.66 1.32 1 2 C-1.40983607 6.70491803 -1.40983607 6.70491803 -4 8 C-4.66 7.34 -5.32 6.68 -6 6 C-4.02 4.02 -2.04 2.04 0 0 Z " fill="#F4C9D4" transform="translate(154,98)"/>
<path d="M0 0 C-0.598125 0.28875 -1.19625 0.5775 -1.8125 0.875 C-4.19327792 2.04742026 -4.19327792 2.04742026 -7 4 C-9.6875 4.125 -9.6875 4.125 -12 4 C-9.57836922 -0.84326157 -4.82936706 -0.18574489 0 0 Z " fill="#FDDEE7" transform="translate(412,66)"/>
<path d="M0 0 C0 3 0 3 -1.75 5.125 C-3.95974524 6.96645436 -5.20090866 7.60012981 -8 8 C-8 7.34 -8 6.68 -8 6 C-7.34 6 -6.68 6 -6 6 C-6 5.34 -6 4.68 -6 4 C-4.68 3.67 -3.36 3.34 -2 3 C-2 2.34 -2 1.68 -2 1 C-1.34 0.67 -0.68 0.34 0 0 Z " fill="#FDECEF" transform="translate(174,56)"/>
<path d="M0 0 C0 0.99 0 1.98 0 3 C-1.32 3.33 -2.64 3.66 -4 4 C-4.33 3.34 -4.66 2.68 -5 2 C-5.99 1.34 -6.98 0.68 -8 0 C-4.94736336 -0.98120464 -3.05263664 -0.98120464 0 0 Z " fill="#3C2D3C" transform="translate(176,292)"/>
<path d="M0 0 C0.66 1.32 1.32 2.64 2 4 C-0.31 4.33 -2.62 4.66 -5 5 C-5.33 4.34 -5.66 3.68 -6 3 C-4.02 2.01 -2.04 1.02 0 0 Z " fill="#DEC5D8" transform="translate(170,288)"/>
<path d="M0 0 C1.98 1.65 3.96 3.3 6 5 C4 6 2 7 0 8 C0 5.36 0 2.72 0 0 Z " fill="#EAA3B0" transform="translate(366,201)"/>
<path d="M0 0 C2.97 0.33 5.94 0.66 9 1 C9 1.33 9 1.66 9 2 C1.375 3 1.375 3 -2 3 C-1.34 2.01 -0.68 1.02 0 0 Z " fill="#FDD1DA" transform="translate(490,196)"/>
<path d="M0 0 C1.8125 2 1.8125 2 3 4 C-0.71888239 3.49287967 -3.73454239 2.88391785 -7 1 C-4.4254716 -0.2872642 -2.85291355 -0.34791629 0 0 Z " fill="#DFC2DA" transform="translate(161,290)"/>
<path d="M0 0 C1.65 0 3.3 0 5 0 C4.01 0.495 4.01 0.495 3 1 C3 1.66 3 2.32 3 3 C-0.46153846 6 -0.46153846 6 -3 6 C-2.67 5.01 -2.34 4.02 -2 3 C-1.34 3 -0.68 3 0 3 C0 2.01 0 1.02 0 0 Z " fill="#F1C7CE" transform="translate(163,61)"/>
<path d="M0 0 C3.465 1.485 3.465 1.485 7 3 C6.34 3.66 5.68 4.32 5 5 C2.875 4.625 2.875 4.625 1 4 C0.67 2.68 0.34 1.36 0 0 Z " fill="#F1E4F4" transform="translate(103,291)"/>
<path d="M0 0 C1.5625 1.25 1.5625 1.25 3 3 C2.6875 5.1875 2.6875 5.1875 2 7 C1.01 6.67 0.02 6.34 -1 6 C-1.042721 4.33388095 -1.04063832 2.66617115 -1 1 C-0.67 0.67 -0.34 0.34 0 0 Z " fill="#D9AAC9" transform="translate(121,252)"/>
<path d="M0 0 C0.66 0 1.32 0 2 0 C2 1.98 2 3.96 2 6 C1.34 6 0.68 6 0 6 C-0.33 6.99 -0.66 7.98 -1 9 C-2.60031344 5.79937313 -1.03173691 3.27728194 0 0 Z " fill="#FBDAE1" transform="translate(554,244)"/>
<path d="M0 0 C1.33897583 0.95043374 2.67105427 1.91059147 4 2.875 C5.11375 3.67550781 5.11375 3.67550781 6.25 4.4921875 C6.8275 4.98976562 7.405 5.48734375 8 6 C8 6.66 8 7.32 8 8 C4.63820226 6.55922954 2.40843732 4.75249979 0 2 C0 1.34 0 0.68 0 0 Z " fill="#FADDE1" transform="translate(536,160)"/>
</svg>
